<svg xmlns="http://www.w3.org/2000/svg" width="1156" height="588" viewBox="0 0 1156 588">
<style>
text{font-family:Arial,Helvetica,sans-serif;fill:#111827}
.title{font-size:24px;font-weight:700}
.subtitle{font-size:13px;fill:#475569}
.axis{stroke:#94a3b8;stroke-width:1}
.grid{stroke:#cbd5e1;stroke-width:1;stroke-dasharray:3 4}
.label{font-size:12px;fill:#334155}
.small{font-size:10px;fill:#475569}
.tick{font-size:10px;fill:#64748b}
</style>
<rect x="0" y="0" width="100%" height="100%" fill="#ffffff"/>
<text x="32.00" y="36.00" class="title" text-anchor="start">Online Latency, Cycles, and Throughput</text>
<text x="32.00" y="58.00" class="subtitle" text-anchor="start">Raw online metrics from firmware BENCH events.</text>
<text x="38.00" y="94.00" class="label" text-anchor="start">CNN latency avg</text>
<text x="38.00" y="111.00" class="small" text-anchor="start">ms</text>
<line x1="92.00" y1="116.00" x2="92.00" y2="269.00" class="axis"/>
<line x1="92.00" y1="269.00" x2="358.00" y2="269.00" class="axis"/>
<line x1="92.00" y1="230.75" x2="358.00" y2="230.75" class="grid"/>
<line x1="92.00" y1="192.50" x2="358.00" y2="192.50" class="grid"/>
<line x1="92.00" y1="154.25" x2="358.00" y2="154.25" class="grid"/>
<rect x="110.00" y="135.96" width="106.00" height="133.04" rx="3" fill="#475569" stroke="none" opacity="1.0"/>
<text x="163.00" y="130.96" class="tick" text-anchor="middle">1.8494</text>
<text x="163.00" y="286.00" class="tick" text-anchor="middle">v0</text>
<rect x="234.00" y="145.91" width="106.00" height="123.09" rx="3" fill="#0f766e" stroke="none" opacity="1.0"/>
<text x="287.00" y="140.91" class="tick" text-anchor="middle">1.7110</text>
<text x="287.00" y="286.00" class="tick" text-anchor="middle">v1</text>
<text x="398.00" y="94.00" class="label" text-anchor="start">Cycles avg</text>
<text x="398.00" y="111.00" class="small" text-anchor="start">cycles</text>
<line x1="452.00" y1="116.00" x2="452.00" y2="269.00" class="axis"/>
<line x1="452.00" y1="269.00" x2="718.00" y2="269.00" class="axis"/>
<line x1="452.00" y1="230.75" x2="718.00" y2="230.75" class="grid"/>
<line x1="452.00" y1="192.50" x2="718.00" y2="192.50" class="grid"/>
<line x1="452.00" y1="154.25" x2="718.00" y2="154.25" class="grid"/>
<rect x="470.00" y="135.96" width="106.00" height="133.04" rx="3" fill="#475569" stroke="none" opacity="1.0"/>
<text x="523.00" y="130.96" class="tick" text-anchor="middle">72,268</text>
<text x="523.00" y="286.00" class="tick" text-anchor="middle">v0</text>
<rect x="594.00" y="145.89" width="106.00" height="123.11" rx="3" fill="#0f766e" stroke="none" opacity="1.0"/>
<text x="647.00" y="140.89" class="tick" text-anchor="middle">66,871</text>
<text x="647.00" y="286.00" class="tick" text-anchor="middle">v1</text>
<text x="758.00" y="94.00" class="label" text-anchor="start">Throughput</text>
<text x="758.00" y="111.00" class="small" text-anchor="start">inf/s</text>
<line x1="812.00" y1="116.00" x2="812.00" y2="269.00" class="axis"/>
<line x1="812.00" y1="269.00" x2="1078.00" y2="269.00" class="axis"/>
<line x1="812.00" y1="230.75" x2="1078.00" y2="230.75" class="grid"/>
<line x1="812.00" y1="192.50" x2="1078.00" y2="192.50" class="grid"/>
<line x1="812.00" y1="154.25" x2="1078.00" y2="154.25" class="grid"/>
<rect x="830.00" y="145.91" width="106.00" height="123.09" rx="3" fill="#475569" stroke="none" opacity="1.0"/>
<text x="883.00" y="140.91" class="tick" text-anchor="middle">540.73</text>
<text x="883.00" y="286.00" class="tick" text-anchor="middle">v0</text>
<rect x="954.00" y="135.96" width="106.00" height="133.04" rx="3" fill="#0f766e" stroke="none" opacity="1.0"/>
<text x="1007.00" y="130.96" class="tick" text-anchor="middle">584.45</text>
<text x="1007.00" y="286.00" class="tick" text-anchor="middle">v1</text>
<text x="38.00" y="329.00" class="label" text-anchor="start">End-to-end lower bound</text>
<text x="38.00" y="346.00" class="small" text-anchor="start">ms</text>
<line x1="92.00" y1="351.00" x2="92.00" y2="504.00" class="axis"/>
<line x1="92.00" y1="504.00" x2="358.00" y2="504.00" class="axis"/>
<line x1="92.00" y1="465.75" x2="358.00" y2="465.75" class="grid"/>
<line x1="92.00" y1="427.50" x2="358.00" y2="427.50" class="grid"/>
<line x1="92.00" y1="389.25" x2="358.00" y2="389.25" class="grid"/>
<rect x="110.00" y="370.96" width="106.00" height="133.04" rx="3" fill="#475569" stroke="none" opacity="1.0"/>
<text x="163.00" y="365.96" class="tick" text-anchor="middle">1,025.85</text>
<text x="163.00" y="521.00" class="tick" text-anchor="middle">v0</text>
<rect x="234.00" y="370.97" width="106.00" height="133.03" rx="3" fill="#0f766e" stroke="none" opacity="1.0"/>
<text x="287.00" y="365.97" class="tick" text-anchor="middle">1,025.71</text>
<text x="287.00" y="521.00" class="tick" text-anchor="middle">v1</text>
<text x="398.00" y="329.00" class="label" text-anchor="start">MOPS/s</text>
<text x="398.00" y="346.00" class="small" text-anchor="start">MOPS/s</text>
<line x1="452.00" y1="351.00" x2="452.00" y2="504.00" class="axis"/>
<line x1="452.00" y1="504.00" x2="718.00" y2="504.00" class="axis"/>
<line x1="452.00" y1="465.75" x2="718.00" y2="465.75" class="grid"/>
<line x1="452.00" y1="427.50" x2="718.00" y2="427.50" class="grid"/>
<line x1="452.00" y1="389.25" x2="718.00" y2="389.25" class="grid"/>
<rect x="470.00" y="370.96" width="106.00" height="133.04" rx="3" fill="#475569" stroke="none" opacity="1.0"/>
<text x="523.00" y="365.96" class="tick" text-anchor="middle">4,512.55</text>
<text x="523.00" y="521.00" class="tick" text-anchor="middle">v0</text>
<rect x="594.00" y="379.81" width="106.00" height="124.19" rx="3" fill="#0f766e" stroke="none" opacity="1.0"/>
<text x="647.00" y="374.81" class="tick" text-anchor="middle">4,212.35</text>
<text x="647.00" y="521.00" class="tick" text-anchor="middle">v1</text>
<text x="758.00" y="329.00" class="label" text-anchor="start">MAC/cycle</text>
<text x="758.00" y="346.00" class="small" text-anchor="start">MAC/cycle</text>
<line x1="812.00" y1="351.00" x2="812.00" y2="504.00" class="axis"/>
<line x1="812.00" y1="504.00" x2="1078.00" y2="504.00" class="axis"/>
<line x1="812.00" y1="465.75" x2="1078.00" y2="465.75" class="grid"/>
<line x1="812.00" y1="427.50" x2="1078.00" y2="427.50" class="grid"/>
<line x1="812.00" y1="389.25" x2="1078.00" y2="389.25" class="grid"/>
<rect x="830.00" y="370.96" width="106.00" height="133.04" rx="3" fill="#475569" stroke="none" opacity="1.0"/>
<text x="883.00" y="365.96" class="tick" text-anchor="middle">115.48</text>
<text x="883.00" y="521.00" class="tick" text-anchor="middle">v0</text>
<rect x="954.00" y="379.83" width="106.00" height="124.17" rx="3" fill="#0f766e" stroke="none" opacity="1.0"/>
<text x="1007.00" y="374.83" class="tick" text-anchor="middle">107.78</text>
<text x="1007.00" y="521.00" class="tick" text-anchor="middle">v1</text>
</svg>