<svg xmlns="http://www.w3.org/2000/svg" width="1156" height="588" viewBox="0 0 1156 588">
<style>
text{font-family:Arial,Helvetica,sans-serif;fill:#111827}
.title{font-size:24px;font-weight:700}
.subtitle{font-size:13px;fill:#475569}
.axis{stroke:#94a3b8;stroke-width:1}
.grid{stroke:#cbd5e1;stroke-width:1;stroke-dasharray:3 4}
.label{font-size:12px;fill:#334155}
.small{font-size:10px;fill:#475569}
.tick{font-size:10px;fill:#64748b}
</style>
<rect x="0" y="0" width="100%" height="100%" fill="#ffffff"/>
<text x="32.00" y="36.00" class="title" text-anchor="start">Compact Online Tradeoff Bars</text>
<text x="32.00" y="58.00" class="subtitle" text-anchor="start">The most important deployment-facing metrics in one view.</text>
<text x="38.00" y="94.00" class="label" text-anchor="start">CNN latency avg</text>
<text x="38.00" y="111.00" class="small" text-anchor="start">ms log</text>
<line x1="92.00" y1="116.00" x2="92.00" y2="269.00" class="axis"/>
<line x1="92.00" y1="269.00" x2="358.00" y2="269.00" class="axis"/>
<line x1="92.00" y1="257.65" x2="358.00" y2="257.65" class="grid"/>
<text x="88.00" y="261.65" class="tick" text-anchor="end">1</text>
<line x1="92.00" y1="212.25" x2="358.00" y2="212.25" class="grid"/>
<text x="88.00" y="216.25" class="tick" text-anchor="end">10</text>
<line x1="92.00" y1="166.85" x2="358.00" y2="166.85" class="grid"/>
<text x="88.00" y="170.85" class="tick" text-anchor="end">100</text>
<line x1="92.00" y1="121.45" x2="358.00" y2="121.45" class="grid"/>
<text x="88.00" y="125.45" class="tick" text-anchor="end">1k</text>
<text x="142.33" y="286.00" class="tick" text-anchor="middle">v0</text>
<rect x="110.00" y="245.53" width="64.67" height="23.47" rx="3" fill="#475569" stroke="none" opacity="1.0"/>
<text x="142.33" y="240.53" class="tick" text-anchor="middle">1.8494</text>
<text x="225.00" y="286.00" class="tick" text-anchor="middle">v1</text>
<rect x="192.67" y="247.06" width="64.67" height="21.94" rx="3" fill="#0f766e" stroke="none" opacity="1.0"/>
<text x="225.00" y="242.06" class="tick" text-anchor="middle">1.7110</text>
<text x="307.67" y="286.00" class="tick" text-anchor="middle">cpu</text>
<rect x="275.33" y="123.58" width="64.67" height="145.42" rx="3" fill="#c2410c" stroke="none" opacity="1.0"/>
<text x="307.67" y="118.58" class="tick" text-anchor="middle">897.29</text>
<text x="398.00" y="94.00" class="label" text-anchor="start">Static SRAM</text>
<text x="398.00" y="111.00" class="small" text-anchor="start">B</text>
<line x1="452.00" y1="116.00" x2="452.00" y2="269.00" class="axis"/>
<line x1="452.00" y1="269.00" x2="718.00" y2="269.00" class="axis"/>
<line x1="452.00" y1="230.75" x2="718.00" y2="230.75" class="grid"/>
<line x1="452.00" y1="192.50" x2="718.00" y2="192.50" class="grid"/>
<line x1="452.00" y1="154.25" x2="718.00" y2="154.25" class="grid"/>
<text x="502.33" y="286.00" class="tick" text-anchor="middle">v0</text>
<rect x="470.00" y="193.84" width="64.67" height="75.16" rx="3" fill="#475569" stroke="none" opacity="1.0"/>
<text x="502.33" y="188.84" class="tick" text-anchor="middle">38,560</text>
<text x="585.00" y="286.00" class="tick" text-anchor="middle">v1</text>
<rect x="552.67" y="193.49" width="64.67" height="75.51" rx="3" fill="#0f766e" stroke="none" opacity="1.0"/>
<text x="585.00" y="188.49" class="tick" text-anchor="middle">38,744</text>
<text x="667.67" y="286.00" class="tick" text-anchor="middle">cpu</text>
<rect x="635.33" y="135.96" width="64.67" height="133.04" rx="3" fill="#c2410c" stroke="none" opacity="1.0"/>
<text x="667.67" y="130.96" class="tick" text-anchor="middle">68,260</text>
<text x="758.00" y="94.00" class="label" text-anchor="start">Text</text>
<text x="758.00" y="111.00" class="small" text-anchor="start">B</text>
<line x1="812.00" y1="116.00" x2="812.00" y2="269.00" class="axis"/>
<line x1="812.00" y1="269.00" x2="1078.00" y2="269.00" class="axis"/>
<line x1="812.00" y1="230.75" x2="1078.00" y2="230.75" class="grid"/>
<line x1="812.00" y1="192.50" x2="1078.00" y2="192.50" class="grid"/>
<line x1="812.00" y1="154.25" x2="1078.00" y2="154.25" class="grid"/>
<text x="862.33" y="286.00" class="tick" text-anchor="middle">v0</text>
<rect x="830.00" y="141.54" width="64.67" height="127.46" rx="3" fill="#475569" stroke="none" opacity="1.0"/>
<text x="862.33" y="136.54" class="tick" text-anchor="middle">390,288</text>
<text x="945.00" y="286.00" class="tick" text-anchor="middle">v1</text>
<rect x="912.67" y="149.46" width="64.67" height="119.54" rx="3" fill="#0f766e" stroke="none" opacity="1.0"/>
<text x="945.00" y="144.46" class="tick" text-anchor="middle">366,040</text>
<text x="1027.67" y="286.00" class="tick" text-anchor="middle">cpu</text>
<rect x="995.33" y="135.96" width="64.67" height="133.04" rx="3" fill="#c2410c" stroke="none" opacity="1.0"/>
<text x="1027.67" y="130.96" class="tick" text-anchor="middle">407,392</text>
<text x="38.00" y="329.00" class="label" text-anchor="start">BSS</text>
<text x="38.00" y="346.00" class="small" text-anchor="start">B</text>
<line x1="92.00" y1="351.00" x2="92.00" y2="504.00" class="axis"/>
<line x1="92.00" y1="504.00" x2="358.00" y2="504.00" class="axis"/>
<line x1="92.00" y1="465.75" x2="358.00" y2="465.75" class="grid"/>
<line x1="92.00" y1="427.50" x2="358.00" y2="427.50" class="grid"/>
<line x1="92.00" y1="389.25" x2="358.00" y2="389.25" class="grid"/>
<text x="142.33" y="521.00" class="tick" text-anchor="middle">v0</text>
<rect x="110.00" y="431.14" width="64.67" height="72.86" rx="3" fill="#475569" stroke="none" opacity="1.0"/>
<text x="142.33" y="426.14" class="tick" text-anchor="middle">35,956</text>
<text x="225.00" y="521.00" class="tick" text-anchor="middle">v1</text>
<rect x="192.67" y="430.76" width="64.67" height="73.24" rx="3" fill="#0f766e" stroke="none" opacity="1.0"/>
<text x="225.00" y="425.76" class="tick" text-anchor="middle">36,140</text>
<text x="307.67" y="521.00" class="tick" text-anchor="middle">cpu</text>
<rect x="275.33" y="370.96" width="64.67" height="133.04" rx="3" fill="#c2410c" stroke="none" opacity="1.0"/>
<text x="307.67" y="365.96" class="tick" text-anchor="middle">65,652</text>
<text x="398.00" y="329.00" class="label" text-anchor="start">Energy/inference</text>
<text x="398.00" y="346.00" class="small" text-anchor="start">uJ log</text>
<line x1="452.00" y1="351.00" x2="452.00" y2="504.00" class="axis"/>
<line x1="452.00" y1="504.00" x2="718.00" y2="504.00" class="axis"/>
<line x1="452.00" y1="492.65" x2="718.00" y2="492.65" class="grid"/>
<text x="448.00" y="496.65" class="tick" text-anchor="end">100</text>
<line x1="452.00" y1="447.25" x2="718.00" y2="447.25" class="grid"/>
<text x="448.00" y="451.25" class="tick" text-anchor="end">1k</text>
<line x1="452.00" y1="401.85" x2="718.00" y2="401.85" class="grid"/>
<text x="448.00" y="405.85" class="tick" text-anchor="end">10k</text>
<line x1="452.00" y1="356.45" x2="718.00" y2="356.45" class="grid"/>
<text x="448.00" y="360.45" class="tick" text-anchor="end">100k</text>
<text x="502.33" y="521.00" class="tick" text-anchor="middle">v0</text>
<rect x="470.00" y="472.11" width="64.67" height="31.89" rx="3" fill="#475569" stroke="none" opacity="1.0"/>
<text x="502.33" y="467.11" class="tick" text-anchor="middle">283.39</text>
<text x="585.00" y="521.00" class="tick" text-anchor="middle">v1</text>
<rect x="552.67" y="474.51" width="64.67" height="29.49" rx="3" fill="#0f766e" stroke="none" opacity="1.0"/>
<text x="585.00" y="469.51" class="tick" text-anchor="middle">250.94</text>
<text x="667.67" y="521.00" class="tick" text-anchor="middle">cpu</text>
<rect x="635.33" y="370.30" width="64.67" height="133.70" rx="3" fill="#c2410c" stroke="none" opacity="1.0"/>
<text x="667.67" y="365.30" class="tick" text-anchor="middle">49,541.78</text>
<text x="758.00" y="329.00" class="label" text-anchor="start">Throughput</text>
<text x="758.00" y="346.00" class="small" text-anchor="start">inf/s log</text>
<line x1="812.00" y1="351.00" x2="812.00" y2="504.00" class="axis"/>
<line x1="812.00" y1="504.00" x2="1078.00" y2="504.00" class="axis"/>
<line x1="812.00" y1="492.65" x2="1078.00" y2="492.65" class="grid"/>
<text x="808.00" y="496.65" class="tick" text-anchor="end">1</text>
<line x1="812.00" y1="447.25" x2="1078.00" y2="447.25" class="grid"/>
<text x="808.00" y="451.25" class="tick" text-anchor="end">10</text>
<line x1="812.00" y1="401.85" x2="1078.00" y2="401.85" class="grid"/>
<text x="808.00" y="405.85" class="tick" text-anchor="end">100</text>
<line x1="812.00" y1="356.45" x2="1078.00" y2="356.45" class="grid"/>
<text x="808.00" y="360.45" class="tick" text-anchor="end">1k</text>
<text x="862.33" y="521.00" class="tick" text-anchor="middle">v0</text>
<rect x="830.00" y="368.57" width="64.67" height="135.43" rx="3" fill="#475569" stroke="none" opacity="1.0"/>
<text x="862.33" y="363.57" class="tick" text-anchor="middle">540.73</text>
<text x="945.00" y="521.00" class="tick" text-anchor="middle">v1</text>
<rect x="912.67" y="367.04" width="64.67" height="136.96" rx="3" fill="#0f766e" stroke="none" opacity="1.0"/>
<text x="945.00" y="362.04" class="tick" text-anchor="middle">584.45</text>
<text x="1027.67" y="521.00" class="tick" text-anchor="middle">cpu</text>
<rect x="995.33" y="490.51" width="64.67" height="13.49" rx="3" fill="#c2410c" stroke="none" opacity="1.0"/>
<text x="1027.67" y="485.51" class="tick" text-anchor="middle">1.1145</text>
</svg>