<svg xmlns="http://www.w3.org/2000/svg" width="1156" height="588" viewBox="0 0 1156 588">
<style>
text{font-family:Arial,Helvetica,sans-serif;fill:#111827}
.title{font-size:24px;font-weight:700}
.subtitle{font-size:13px;fill:#475569}
.axis{stroke:#94a3b8;stroke-width:1}
.grid{stroke:#cbd5e1;stroke-width:1;stroke-dasharray:3 4}
.label{font-size:12px;fill:#334155}
.small{font-size:10px;fill:#475569}
.tick{font-size:10px;fill:#64748b}
.platform_u5{font-size:11px;fill:#1d4ed8;font-style:italic}
.platform_mx{font-size:11px;fill:#b45309;font-style:italic}
</style>
<rect x="0" y="0" width="100%" height="100%" fill="#ffffff"/>
<text x="32.00" y="36.00" class="title" text-anchor="start">Latency, Throughput, Energy — Cross-Platform</text>
<text x="32.00" y="58.00" class="subtitle" text-anchor="start">Log scale used where range exceeds 10× (marked bars). Separator: STM32U5 | MAX78000.</text>
<text x="38.00" y="94.00" class="label" text-anchor="start">CNN latency avg</text>
<text x="38.00" y="111.00" class="small" text-anchor="start">ms</text>
<line x1="92.00" y1="116.00" x2="92.00" y2="269.00" class="axis"/>
<line x1="92.00" y1="269.00" x2="358.00" y2="269.00" class="axis"/>
<line x1="92.00" y1="269.00" x2="358.00" y2="269.00" class="grid"/>
<text x="88.00" y="273.00" class="tick" text-anchor="end">1e0</text>
<line x1="92.00" y1="218.00" x2="358.00" y2="218.00" class="grid"/>
<text x="88.00" y="222.00" class="tick" text-anchor="end">1e1</text>
<line x1="92.00" y1="167.00" x2="358.00" y2="167.00" class="grid"/>
<text x="88.00" y="171.00" class="tick" text-anchor="end">1e2</text>
<line x1="92.00" y1="116.00" x2="358.00" y2="116.00" class="grid"/>
<text x="88.00" y="120.00" class="tick" text-anchor="end">1e3</text>
<rect x="110.00" y="136.45" width="31.60" height="132.55" rx="3" fill="#1d4ed8" stroke="none" opacity="1.0"/>
<text x="125.80" y="131.45" class="tick" text-anchor="middle">397.24</text>
<text x="125.80" y="286.00" class="tick" text-anchor="middle">U5-v0</text>
<rect x="159.60" y="154.75" width="31.60" height="114.25" rx="3" fill="#0891b2" stroke="none" opacity="1.0"/>
<text x="175.40" y="149.75" class="tick" text-anchor="middle">173.84</text>
<text x="175.40" y="286.00" class="tick" text-anchor="middle">U5-v1</text>
<rect x="209.20" y="157.59" width="31.60" height="111.41" rx="3" fill="#0e7490" stroke="none" opacity="1.0"/>
<text x="225.00" y="152.59" class="tick" text-anchor="middle">152.92</text>
<text x="225.00" y="286.00" class="tick" text-anchor="middle">U5-v2</text>
<line x1="249.80" y1="116.00" x2="249.80" y2="273.00" stroke="#94a3b8" stroke-width="1.2" stroke-dasharray="4 3"/>
<rect x="258.80" y="255.38" width="31.60" height="13.62" rx="3" fill="#b45309" stroke="none" opacity="1.0"/>
<text x="274.60" y="250.38" class="tick" text-anchor="middle">1.8494</text>
<text x="274.60" y="286.00" class="tick" text-anchor="middle">MX-v0</text>
<rect x="308.40" y="257.10" width="31.60" height="11.90" rx="3" fill="#d97706" stroke="none" opacity="1.0"/>
<text x="324.20" y="252.10" class="tick" text-anchor="middle">1.7110</text>
<text x="324.20" y="286.00" class="tick" text-anchor="middle">MX-v1</text>
<text x="398.00" y="94.00" class="label" text-anchor="start">Throughput</text>
<text x="398.00" y="111.00" class="small" text-anchor="start">inf/s</text>
<line x1="452.00" y1="116.00" x2="452.00" y2="269.00" class="axis"/>
<line x1="452.00" y1="269.00" x2="718.00" y2="269.00" class="axis"/>
<line x1="452.00" y1="269.00" x2="718.00" y2="269.00" class="grid"/>
<text x="448.00" y="273.00" class="tick" text-anchor="end">1e0</text>
<line x1="452.00" y1="218.00" x2="718.00" y2="218.00" class="grid"/>
<text x="448.00" y="222.00" class="tick" text-anchor="end">1e1</text>
<line x1="452.00" y1="167.00" x2="718.00" y2="167.00" class="grid"/>
<text x="448.00" y="171.00" class="tick" text-anchor="end">1e2</text>
<line x1="452.00" y1="116.00" x2="718.00" y2="116.00" class="grid"/>
<text x="448.00" y="120.00" class="tick" text-anchor="end">1e3</text>
<rect x="470.00" y="248.55" width="31.60" height="20.45" rx="3" fill="#1d4ed8" stroke="none" opacity="1.0"/>
<text x="485.80" y="243.55" class="tick" text-anchor="middle">2.5174</text>
<text x="485.80" y="286.00" class="tick" text-anchor="middle">U5-v0</text>
<rect x="519.60" y="230.25" width="31.60" height="38.75" rx="3" fill="#0891b2" stroke="none" opacity="1.0"/>
<text x="535.40" y="225.25" class="tick" text-anchor="middle">5.7524</text>
<text x="535.40" y="286.00" class="tick" text-anchor="middle">U5-v1</text>
<rect x="569.20" y="227.41" width="31.60" height="41.59" rx="3" fill="#0e7490" stroke="none" opacity="1.0"/>
<text x="585.00" y="222.41" class="tick" text-anchor="middle">6.5393</text>
<text x="585.00" y="286.00" class="tick" text-anchor="middle">U5-v2</text>
<line x1="609.80" y1="116.00" x2="609.80" y2="273.00" stroke="#94a3b8" stroke-width="1.2" stroke-dasharray="4 3"/>
<rect x="618.80" y="129.62" width="31.60" height="139.38" rx="3" fill="#b45309" stroke="none" opacity="1.0"/>
<text x="634.60" y="124.62" class="tick" text-anchor="middle">540.73</text>
<text x="634.60" y="286.00" class="tick" text-anchor="middle">MX-v0</text>
<rect x="668.40" y="127.90" width="31.60" height="141.10" rx="3" fill="#d97706" stroke="none" opacity="1.0"/>
<text x="684.20" y="122.90" class="tick" text-anchor="middle">584.45</text>
<text x="684.20" y="286.00" class="tick" text-anchor="middle">MX-v1</text>
<text x="758.00" y="94.00" class="label" text-anchor="start">End-to-end</text>
<text x="758.00" y="111.00" class="small" text-anchor="start">ms</text>
<line x1="812.00" y1="116.00" x2="812.00" y2="269.00" class="axis"/>
<line x1="812.00" y1="269.00" x2="1078.00" y2="269.00" class="axis"/>
<line x1="812.00" y1="230.75" x2="1078.00" y2="230.75" class="grid"/>
<line x1="812.00" y1="192.50" x2="1078.00" y2="192.50" class="grid"/>
<line x1="812.00" y1="154.25" x2="1078.00" y2="154.25" class="grid"/>
<rect x="830.00" y="135.96" width="31.60" height="133.04" rx="3" fill="#1d4ed8" stroke="none" opacity="1.0"/>
<text x="845.80" y="130.96" class="tick" text-anchor="middle">1,421.24</text>
<text x="845.80" y="286.00" class="tick" text-anchor="middle">U5-v0</text>
<rect x="879.60" y="156.87" width="31.60" height="112.13" rx="3" fill="#0891b2" stroke="none" opacity="1.0"/>
<text x="895.40" y="151.87" class="tick" text-anchor="middle">1,197.84</text>
<text x="895.40" y="286.00" class="tick" text-anchor="middle">U5-v1</text>
<rect x="929.20" y="158.83" width="31.60" height="110.17" rx="3" fill="#0e7490" stroke="none" opacity="1.0"/>
<text x="945.00" y="153.83" class="tick" text-anchor="middle">1,176.92</text>
<text x="945.00" y="286.00" class="tick" text-anchor="middle">U5-v2</text>
<line x1="969.80" y1="116.00" x2="969.80" y2="273.00" stroke="#94a3b8" stroke-width="1.2" stroke-dasharray="4 3"/>
<rect x="978.80" y="172.97" width="31.60" height="96.03" rx="3" fill="#b45309" stroke="none" opacity="1.0"/>
<text x="994.60" y="167.97" class="tick" text-anchor="middle">1,025.85</text>
<text x="994.60" y="286.00" class="tick" text-anchor="middle">MX-v0</text>
<rect x="1028.40" y="172.98" width="31.60" height="96.02" rx="3" fill="#d97706" stroke="none" opacity="1.0"/>
<text x="1044.20" y="167.98" class="tick" text-anchor="middle">1,025.71</text>
<text x="1044.20" y="286.00" class="tick" text-anchor="middle">MX-v1</text>
<text x="38.00" y="329.00" class="label" text-anchor="start">MOPS/s</text>
<text x="38.00" y="346.00" class="small" text-anchor="start">MOPS/s</text>
<line x1="92.00" y1="351.00" x2="92.00" y2="504.00" class="axis"/>
<line x1="92.00" y1="504.00" x2="358.00" y2="504.00" class="axis"/>
<line x1="92.00" y1="504.00" x2="358.00" y2="504.00" class="grid"/>
<text x="88.00" y="508.00" class="tick" text-anchor="end">1e1</text>
<line x1="92.00" y1="453.00" x2="358.00" y2="453.00" class="grid"/>
<text x="88.00" y="457.00" class="tick" text-anchor="end">1e2</text>
<line x1="92.00" y1="402.00" x2="358.00" y2="402.00" class="grid"/>
<text x="88.00" y="406.00" class="tick" text-anchor="end">1e3</text>
<line x1="92.00" y1="351.00" x2="358.00" y2="351.00" class="grid"/>
<text x="88.00" y="355.00" class="tick" text-anchor="end">1e4</text>
<rect x="110.00" y="486.39" width="31.60" height="17.61" rx="3" fill="#1d4ed8" stroke="none" opacity="1.0"/>
<text x="125.80" y="481.39" class="tick" text-anchor="middle">22.146</text>
<text x="125.80" y="521.00" class="tick" text-anchor="middle">U5-v0</text>
<rect x="159.60" y="467.79" width="31.60" height="36.21" rx="3" fill="#0891b2" stroke="none" opacity="1.0"/>
<text x="175.40" y="462.79" class="tick" text-anchor="middle">51.285</text>
<text x="175.40" y="521.00" class="tick" text-anchor="middle">U5-v1</text>
<rect x="209.20" y="468.42" width="31.60" height="35.58" rx="3" fill="#0e7490" stroke="none" opacity="1.0"/>
<text x="225.00" y="463.42" class="tick" text-anchor="middle">49.853</text>
<text x="225.00" y="521.00" class="tick" text-anchor="middle">U5-v2</text>
<line x1="249.80" y1="351.00" x2="249.80" y2="508.00" stroke="#94a3b8" stroke-width="1.2" stroke-dasharray="4 3"/>
<rect x="258.80" y="368.62" width="31.60" height="135.38" rx="3" fill="#b45309" stroke="none" opacity="1.0"/>
<text x="274.60" y="363.62" class="tick" text-anchor="middle">4,512.55</text>
<text x="274.60" y="521.00" class="tick" text-anchor="middle">MX-v0</text>
<rect x="308.40" y="370.15" width="31.60" height="133.85" rx="3" fill="#d97706" stroke="none" opacity="1.0"/>
<text x="324.20" y="365.15" class="tick" text-anchor="middle">4,212.35</text>
<text x="324.20" y="521.00" class="tick" text-anchor="middle">MX-v1</text>
<text x="398.00" y="329.00" class="label" text-anchor="start">Cycles avg</text>
<text x="398.00" y="346.00" class="small" text-anchor="start">cycles</text>
<line x1="452.00" y1="351.00" x2="452.00" y2="504.00" class="axis"/>
<line x1="452.00" y1="504.00" x2="718.00" y2="504.00" class="axis"/>
<line x1="452.00" y1="504.00" x2="718.00" y2="504.00" class="grid"/>
<text x="448.00" y="508.00" class="tick" text-anchor="end">1e4</text>
<line x1="452.00" y1="465.75" x2="718.00" y2="465.75" class="grid"/>
<text x="448.00" y="469.75" class="tick" text-anchor="end">1e5</text>
<line x1="452.00" y1="427.50" x2="718.00" y2="427.50" class="grid"/>
<text x="448.00" y="431.50" class="tick" text-anchor="end">1e6</text>
<line x1="452.00" y1="389.25" x2="718.00" y2="389.25" class="grid"/>
<text x="448.00" y="393.25" class="tick" text-anchor="end">1e7</text>
<line x1="452.00" y1="351.00" x2="718.00" y2="351.00" class="grid"/>
<text x="448.00" y="355.00" class="tick" text-anchor="end">1e8</text>
<rect x="470.00" y="358.53" width="31.60" height="145.47" rx="3" fill="#1d4ed8" stroke="none" opacity="1.0"/>
<text x="485.80" y="353.53" class="tick" text-anchor="middle">63,558,802</text>
<text x="485.80" y="521.00" class="tick" text-anchor="middle">U5-v0</text>
<rect x="519.60" y="372.26" width="31.60" height="131.74" rx="3" fill="#0891b2" stroke="none" opacity="1.0"/>
<text x="535.40" y="367.26" class="tick" text-anchor="middle">27,814,386</text>
<text x="535.40" y="521.00" class="tick" text-anchor="middle">U5-v1</text>
<rect x="569.20" y="374.39" width="31.60" height="129.61" rx="3" fill="#0e7490" stroke="none" opacity="1.0"/>
<text x="585.00" y="369.39" class="tick" text-anchor="middle">24,467,522</text>
<text x="585.00" y="521.00" class="tick" text-anchor="middle">U5-v2</text>
<line x1="609.80" y1="351.00" x2="609.80" y2="508.00" stroke="#94a3b8" stroke-width="1.2" stroke-dasharray="4 3"/>
<rect x="618.80" y="471.15" width="31.60" height="32.85" rx="3" fill="#b45309" stroke="none" opacity="1.0"/>
<text x="634.60" y="466.15" class="tick" text-anchor="middle">72,268</text>
<text x="634.60" y="521.00" class="tick" text-anchor="middle">MX-v0</text>
<rect x="668.40" y="472.43" width="31.60" height="31.57" rx="3" fill="#d97706" stroke="none" opacity="1.0"/>
<text x="684.20" y="467.43" class="tick" text-anchor="middle">66,871</text>
<text x="684.20" y="521.00" class="tick" text-anchor="middle">MX-v1</text>
<text x="758.00" y="329.00" class="label" text-anchor="start">Energy/inference</text>
<text x="758.00" y="346.00" class="small" text-anchor="start">uJ</text>
<line x1="812.00" y1="351.00" x2="812.00" y2="504.00" class="axis"/>
<line x1="812.00" y1="504.00" x2="1078.00" y2="504.00" class="axis"/>
<line x1="812.00" y1="504.00" x2="1078.00" y2="504.00" class="grid"/>
<text x="808.00" y="508.00" class="tick" text-anchor="end">1e2</text>
<line x1="812.00" y1="453.00" x2="1078.00" y2="453.00" class="grid"/>
<text x="808.00" y="457.00" class="tick" text-anchor="end">1e3</text>
<line x1="812.00" y1="402.00" x2="1078.00" y2="402.00" class="grid"/>
<text x="808.00" y="406.00" class="tick" text-anchor="end">1e4</text>
<line x1="812.00" y1="351.00" x2="1078.00" y2="351.00" class="grid"/>
<text x="808.00" y="355.00" class="tick" text-anchor="end">1e5</text>
<rect x="830.00" y="376.66" width="31.60" height="127.34" rx="3" fill="#1d4ed8" stroke="none" opacity="1.0"/>
<text x="845.80" y="371.66" class="tick" text-anchor="middle">31,394.71</text>
<text x="845.80" y="521.00" class="tick" text-anchor="middle">U5-v0</text>
<rect x="879.60" y="396.62" width="31.60" height="107.38" rx="3" fill="#0891b2" stroke="none" opacity="1.0"/>
<text x="895.40" y="391.62" class="tick" text-anchor="middle">12,751.97</text>
<text x="895.40" y="521.00" class="tick" text-anchor="middle">U5-v1</text>
<rect x="929.20" y="398.95" width="31.60" height="105.05" rx="3" fill="#0e7490" stroke="none" opacity="1.0"/>
<text x="945.00" y="393.95" class="tick" text-anchor="middle">11,475.73</text>
<text x="945.00" y="521.00" class="tick" text-anchor="middle">U5-v2</text>
<line x1="969.80" y1="351.00" x2="969.80" y2="508.00" stroke="#94a3b8" stroke-width="1.2" stroke-dasharray="4 3"/>
<rect x="978.80" y="480.93" width="31.60" height="23.07" rx="3" fill="#b45309" stroke="none" opacity="1.0"/>
<text x="994.60" y="475.93" class="tick" text-anchor="middle">283.39</text>
<text x="994.60" y="521.00" class="tick" text-anchor="middle">MX-v0</text>
<rect x="1028.40" y="483.62" width="31.60" height="20.38" rx="3" fill="#d97706" stroke="none" opacity="1.0"/>
<text x="1044.20" y="478.62" class="tick" text-anchor="middle">250.94</text>
<text x="1044.20" y="521.00" class="tick" text-anchor="middle">MX-v1</text>
<rect x="46.00" y="558.00" width="12.00" height="12.00" rx="2" fill="#1d4ed8" stroke="none" opacity="1.0"/>
<text x="64.00" y="570.00" class="small" text-anchor="start">STM32U5 (U5-v0/v1/v2)</text>
<rect x="266.00" y="558.00" width="12.00" height="12.00" rx="2" fill="#b45309" stroke="none" opacity="1.0"/>
<text x="284.00" y="570.00" class="small" text-anchor="start">MAX78000 (MX-v0/v1)</text>
</svg>