<svg xmlns="http://www.w3.org/2000/svg" width="1400" height="500" viewBox="0 0 1400 500">
<rect width="100%" height="100%" fill="white"/>
<text x="700.0" y="28" text-anchor="middle" font-size="24" font-family="sans-serif">Peak zoom windows</text>
<rect x="85" y="55" width="1285" height="385" fill="none" stroke="#333" stroke-width="1"/>
<line x1="85.00" y1="55" x2="85.00" y2="440" stroke="#ddd" stroke-width="1"/>
<line x1="342.00" y1="55" x2="342.00" y2="440" stroke="#ddd" stroke-width="1"/>
<line x1="599.00" y1="55" x2="599.00" y2="440" stroke="#ddd" stroke-width="1"/>
<line x1="856.00" y1="55" x2="856.00" y2="440" stroke="#ddd" stroke-width="1"/>
<line x1="1113.00" y1="55" x2="1113.00" y2="440" stroke="#ddd" stroke-width="1"/>
<line x1="1370.00" y1="55" x2="1370.00" y2="440" stroke="#ddd" stroke-width="1"/>
<line x1="85" y1="55.00" x2="1370" y2="55.00" stroke="#ddd" stroke-width="1"/>
<line x1="85" y1="132.00" x2="1370" y2="132.00" stroke="#ddd" stroke-width="1"/>
<line x1="85" y1="209.00" x2="1370" y2="209.00" stroke="#ddd" stroke-width="1"/>
<line x1="85" y1="286.00" x2="1370" y2="286.00" stroke="#ddd" stroke-width="1"/>
<line x1="85" y1="363.00" x2="1370" y2="363.00" stroke="#ddd" stroke-width="1"/>
<line x1="85" y1="440.00" x2="1370" y2="440.00" stroke="#ddd" stroke-width="1"/>
<text x="85.00" y="462" text-anchor="middle" font-size="14" font-family="sans-serif">-5.000</text>
<text x="75" y="60.00" text-anchor="end" font-size="14" font-family="sans-serif">51718.6</text>
<text x="342.00" y="462" text-anchor="middle" font-size="14" font-family="sans-serif">-3.000</text>
<text x="75" y="137.00" text-anchor="end" font-size="14" font-family="sans-serif">43548.1</text>
<text x="599.00" y="462" text-anchor="middle" font-size="14" font-family="sans-serif">-1.000</text>
<text x="75" y="214.00" text-anchor="end" font-size="14" font-family="sans-serif">35377.5</text>
<text x="856.00" y="462" text-anchor="middle" font-size="14" font-family="sans-serif">1.000</text>
<text x="75" y="291.00" text-anchor="end" font-size="14" font-family="sans-serif">27207.0</text>
<text x="1113.00" y="462" text-anchor="middle" font-size="14" font-family="sans-serif">3.000</text>
<text x="75" y="368.00" text-anchor="end" font-size="14" font-family="sans-serif">19036.5</text>
<text x="1370.00" y="462" text-anchor="middle" font-size="14" font-family="sans-serif">5.000</text>
<text x="75" y="445.00" text-anchor="end" font-size="14" font-family="sans-serif">10866.0</text>
<polyline fill="none" stroke="#1f77b4" stroke-width="1.0" points="85.00,409.27 86.28,408.82 87.57,408.82 88.85,409.27 90.14,412.80 91.42,412.80 92.71,411.92 93.99,411.04 95.28,414.57 96.56,411.48 97.85,411.92 99.13,413.69 100.42,414.13 101.70,414.13 102.99,414.13 104.28,416.33 105.56,415.01 106.85,416.33 108.13,416.77 109.42,416.33 110.70,416.33 111.99,416.33 113.27,418.10 114.56,416.77 115.84,417.66 117.12,417.22 118.41,417.66 119.69,373.64 120.98,366.46 122.26,368.71 123.55,371.40 124.83,376.78 126.12,377.67 127.40,379.02 128.69,381.70 129.97,384.83 131.26,387.95 132.54,387.51 133.83,391.07 135.11,389.73 136.40,394.19 137.68,394.63 138.97,395.97 140.25,397.30 141.54,399.08 142.82,400.41 144.11,402.62 145.39,401.74 146.68,404.84 147.96,405.73 149.25,405.73 150.53,404.40 151.82,405.28 153.10,406.17 154.39,408.38 155.67,408.38 156.96,407.50 158.24,408.82 159.53,411.04 160.81,411.48 162.10,411.92 163.38,411.92 164.67,413.69 165.95,413.69 167.24,412.80 168.53,414.57 169.81,413.69 171.10,412.36 172.38,412.36 173.67,414.57 174.95,415.45 176.24,415.45 177.52,414.13 178.81,416.33 180.09,414.57 181.38,415.89 182.66,416.33 183.94,379.02 185.23,367.36 186.51,369.16 187.80,372.75 189.08,376.33 190.37,376.78 191.65,380.81 192.94,382.15 194.22,382.59 195.51,384.83 196.79,387.51 198.08,390.18 199.36,391.52 200.65,393.74 201.93,396.41 203.22,395.52 204.50,396.41 205.79,399.96 207.07,398.63 208.36,400.41 209.64,401.29 210.93,401.29 212.21,403.95 213.50,405.28 214.78,406.17 216.07,406.61 217.35,409.27 218.64,407.94 219.92,407.50 221.21,408.38 222.49,408.82 223.78,410.59 225.06,409.71 226.35,410.59 227.63,410.59 228.92,413.24 230.20,412.36 231.49,411.48 232.78,414.13 234.06,414.13 235.35,417.22 236.63,412.36 237.92,415.01 239.20,414.13 240.49,415.89 241.77,416.33 243.06,416.33 244.34,416.77 245.62,417.66 246.91,374.99 248.19,366.46 249.48,367.36 250.76,371.40 252.05,374.54 253.33,375.88 254.62,380.81 255.90,381.25 257.19,384.38 258.47,387.95 259.76,387.51 261.04,390.63 262.33,389.73 263.61,393.30 264.90,395.97 266.18,396.41 267.47,399.96 268.75,399.96 270.04,400.85 271.32,400.85 272.61,401.74 273.89,402.62 275.18,403.95 276.46,405.73 277.75,404.40 279.03,405.28 280.32,406.61 281.60,407.94 282.89,407.05 284.17,408.82 285.46,410.15 286.74,408.82 288.03,409.71 289.31,411.48 290.60,412.80 291.88,411.48 293.17,412.80 294.45,412.36 295.74,411.92 297.03,413.69 298.31,413.24 299.60,415.01 300.88,415.45 302.17,415.89 303.45,416.77 304.74,417.22 306.02,414.57 307.31,414.13 308.59,418.98 309.88,416.77 311.16,417.66 312.44,416.33 313.73,415.01 315.01,371.40 316.30,364.66 317.58,370.05 318.87,370.05 320.15,373.64 321.44,376.78 322.72,378.57 324.01,382.15 325.29,385.27 326.58,386.17 327.86,389.29 329.15,389.73 330.43,392.41 331.72,393.30 333.00,395.52 334.29,396.85 335.57,397.30 336.86,398.63 338.14,399.52 339.43,402.18 340.71,402.62 342.00,403.95 343.28,404.40 344.57,404.84 345.85,406.61 347.14,406.61 348.42,369.60 349.71,361.51 350.99,364.66 352.28,368.26 353.56,371.85 354.85,374.54 356.13,378.12 357.42,380.36 358.70,382.59 359.99,384.83 361.28,385.72 362.56,389.29 363.85,389.73 365.13,391.07 366.42,394.19 367.70,395.08 368.99,396.85 370.27,396.41 371.56,397.74 372.84,399.52 374.12,399.96 375.41,400.85 376.69,403.95 377.98,404.40 379.26,403.51 380.55,407.05 381.83,407.50 383.12,407.05 384.40,407.50 385.69,408.38 386.97,410.59 388.26,408.82 389.54,412.80 390.83,410.59 392.11,411.04 393.40,410.59 394.68,412.36 395.97,410.59 397.25,412.36 398.54,413.69 399.82,413.69 401.11,414.13 402.39,415.01 403.68,413.24 404.96,415.01 406.25,414.57 407.53,415.01 408.82,416.33 410.10,415.89 411.39,417.66 412.67,380.36 413.96,367.36 415.24,369.16 416.53,372.30 417.81,374.99 419.10,377.23 420.38,382.59 421.67,383.49 422.95,386.17 424.24,386.61 425.53,389.73 426.81,390.63 428.10,392.85 429.38,395.08 430.67,396.41 431.95,396.41 433.24,399.52 434.52,399.96 435.81,401.29 437.09,400.85 438.38,404.84 439.66,404.40 440.94,404.84 442.23,405.73 443.51,408.38 444.80,409.71 446.08,408.82 447.37,409.71 448.65,408.82 449.94,411.04 451.22,409.71 452.51,410.59 453.79,410.15 455.08,411.48 456.36,411.92 457.65,412.36 458.93,412.80 460.22,412.36 461.50,414.57 462.79,415.89 464.07,414.13 465.36,414.13 466.64,416.33 467.93,414.13 469.21,412.36 470.50,412.36 471.78,410.59 473.07,411.04 474.35,410.59 475.64,409.71 476.92,408.82 478.21,408.82 479.49,407.94 480.78,407.50 482.06,406.61 483.35,406.17 484.63,405.73 485.92,395.08 487.20,358.80 488.49,358.35 489.78,360.16 491.06,361.51 492.35,366.01 493.63,367.81 494.92,369.16 496.20,371.40 497.49,371.40 498.77,375.88 500.06,374.99 501.34,379.02 502.62,378.57 503.91,379.02 505.19,380.81 506.48,382.15 507.76,384.38 509.05,384.38 510.33,385.72 511.62,386.17 512.90,387.06 514.19,388.40 515.47,387.95 516.76,389.29 518.04,389.29 519.33,389.29 520.61,389.29 521.90,391.96 523.18,391.07 524.47,392.85 525.75,393.30 527.04,391.96 528.32,393.30 529.61,392.41 530.89,394.63 532.18,394.19 533.46,394.63 534.75,395.08 536.03,395.08 537.32,395.08 538.60,396.41 539.89,395.08 541.17,396.41 542.46,396.85 543.74,397.30 545.03,398.19 546.31,398.63 547.60,398.19 548.88,399.08 550.17,397.30 551.45,398.19 552.74,397.30 554.03,362.86 555.31,351.13 556.60,351.58 557.88,353.84 559.17,357.45 560.45,359.26 561.74,362.41 563.02,365.11 564.31,366.01 565.59,368.71 566.88,370.05 568.16,370.95 569.44,374.54 570.73,377.23 572.01,376.78 573.30,379.02 574.58,379.91 575.87,380.36 577.15,382.15 578.44,384.38 579.72,384.83 581.01,384.83 582.29,387.95 583.58,389.29 584.86,387.95 586.15,355.65 587.43,347.96 588.72,350.68 590.00,353.84 591.29,354.29 592.57,357.90 593.86,359.71 595.14,362.41 596.43,366.91 597.71,367.81 599.00,370.05 600.28,370.05 601.57,372.30 602.85,374.09 604.14,377.23 605.42,376.33 606.71,376.33 607.99,369.16 609.28,358.35 610.56,346.60 611.85,335.71 613.13,324.77 614.42,315.17 615.70,303.23 616.99,295.39 618.28,287.07 619.56,280.12 620.85,271.75 622.13,262.43 623.42,252.14 624.70,241.34 625.99,230.03 627.27,216.30 628.56,206.79 629.84,196.78 631.12,187.21 632.41,180.98 633.69,171.36 634.98,169.91 636.26,163.16 637.55,159.78 638.83,159.29 640.12,151.06 641.40,150.58 642.69,145.24 643.97,142.81 645.26,136.48 646.54,130.14 647.83,129.65 649.11,128.19 650.40,123.79 651.68,123.79 652.97,120.36 654.25,119.87 655.54,121.34 656.82,120.36 658.11,116.93 659.39,113.01 660.68,110.55 661.96,110.06 663.25,110.55 664.53,113.99 665.82,116.93 667.10,126.72 668.39,129.65 669.67,128.19 670.96,127.21 672.24,128.68 673.53,130.14 674.81,128.19 676.10,130.14 677.38,130.63 678.67,127.70 679.95,129.16 681.24,129.16 682.53,130.14 683.81,129.16 685.10,127.70 686.38,128.19 687.67,130.14 688.95,128.68 690.24,126.23 691.52,125.26 692.81,124.77 694.09,123.30 695.38,121.34 696.66,119.87 697.94,119.87 699.23,115.95 700.51,118.40 701.80,116.44 703.08,113.99 704.37,113.99 705.65,114.48 706.94,112.52 708.22,113.50 709.51,110.55 710.79,110.55 712.08,110.55 713.36,108.59 714.65,111.53 715.93,109.57 717.22,108.59 718.50,108.59 719.79,108.59 721.07,107.60 722.36,107.60 723.64,108.10 724.93,109.08 726.21,108.10 727.50,105.64 728.78,106.62 730.07,108.59 731.35,107.60 732.64,108.59 733.92,108.10 735.21,108.10 736.49,108.10 737.78,110.06 739.06,111.04 740.35,113.01 741.63,111.04 742.92,111.53 744.20,112.03 745.49,112.52 746.78,112.52 748.06,112.03 749.35,113.50 750.63,111.04 751.92,111.53 753.20,113.01 754.49,114.97 755.77,113.01 757.06,112.03 758.34,114.97 759.62,118.40 760.91,116.93 762.19,116.44 763.48,114.48 764.76,114.48 766.05,111.53 767.33,111.53 768.62,110.55 769.90,111.04 771.19,111.53 772.47,110.55 773.76,111.04 775.04,112.52 776.33,109.57 777.61,108.59 778.90,107.60 780.18,108.10 781.47,108.10 782.75,106.13 784.04,108.59 785.32,107.11 786.61,108.10 787.89,108.59 789.18,108.59 790.46,108.59 791.75,113.99 793.03,121.83 794.32,126.72 795.60,131.12 796.89,135.02 798.17,139.89 799.46,142.32 800.74,145.24 802.03,147.67 803.31,157.36 804.60,160.74 805.88,168.47 807.17,178.58 808.45,180.02 809.74,188.17 811.03,190.56 812.31,195.82 813.60,202.03 814.88,206.32 816.17,208.70 817.45,214.40 818.74,217.25 820.02,223.41 821.31,226.24 822.59,229.08 823.87,234.74 825.16,235.22 826.44,239.46 827.73,243.69 829.01,245.10 830.30,250.26 831.58,259.63 832.87,268.96 834.15,277.33 835.44,283.83 836.72,290.31 838.01,298.62 839.29,303.69 840.58,310.12 841.86,316.54 843.15,322.03 844.43,325.69 845.72,331.61 847.00,335.71 848.29,342.98 849.57,346.60 850.86,351.13 852.14,353.84 853.43,357.90 854.71,359.26 856.00,364.21 857.28,366.91 858.57,369.60 859.85,372.75 861.14,375.44 862.42,376.33 863.71,379.02 864.99,382.59 866.28,383.93 867.56,386.61 868.85,387.95 870.13,388.84 871.42,390.63 872.70,391.07 873.99,395.08 875.28,394.63 876.56,385.72 877.85,357.00 879.13,355.65 880.42,358.80 881.70,362.41 882.99,366.91 884.27,369.60 885.56,371.40 886.84,374.54 888.12,377.23 889.41,380.36 890.69,382.59 891.98,382.59 893.26,385.27 894.55,388.84 895.83,388.84 897.12,391.07 898.40,395.08 899.69,395.97 900.97,395.97 902.26,396.41 903.54,398.63 904.83,399.52 906.11,399.08 907.40,400.85 908.68,402.18 909.97,403.95 911.25,404.84 912.54,405.73 913.82,405.28 915.11,407.05 916.39,406.61 917.68,407.05 918.96,407.50 920.25,408.38 921.53,409.71 922.82,411.04 924.10,411.48 925.39,411.04 926.67,412.36 927.96,412.36 929.24,411.92 930.53,411.48 931.81,374.54 933.10,371.40 934.38,371.40 935.67,373.19 936.95,376.78 938.24,377.23 939.53,381.25 940.81,383.04 942.10,385.27 943.38,386.61 944.67,389.29 945.95,390.18 947.24,391.96 948.52,394.63 949.81,394.63 951.09,397.74 952.38,399.08 953.66,400.85 954.94,400.85 956.23,402.62 957.51,402.62 958.80,403.95 960.08,404.40 961.37,404.84 962.65,405.73 963.94,407.05 965.22,407.94 966.51,408.38 967.79,409.27 969.08,409.71 970.36,409.71 971.65,409.71 972.93,408.82 974.22,411.04 975.50,411.04 976.79,412.36 978.07,411.04 979.36,414.57 980.64,412.36 981.93,413.69 983.21,414.57 984.50,414.13 985.78,413.24 987.07,414.13 988.35,415.45 989.64,414.13 990.92,415.45 992.21,415.45 993.49,415.89 994.78,416.33 996.06,416.33 997.35,416.33 998.63,417.22 999.92,415.45 1001.20,417.66 1002.49,418.10 1003.78,418.10 1005.06,417.66 1006.35,418.10 1007.63,418.10 1008.92,418.54 1010.20,417.22 1011.49,418.98 1012.77,416.33 1014.06,417.22 1015.34,417.22 1016.62,418.10 1017.91,417.22 1019.19,416.77 1020.48,418.10 1021.76,417.66 1023.05,416.77 1024.33,417.22 1025.62,415.89 1026.90,418.54 1028.19,417.66 1029.47,418.54 1030.76,415.89 1032.04,377.23 1033.33,372.75 1034.61,374.54 1035.90,378.12 1037.18,380.36 1038.47,382.15 1039.75,383.93 1041.04,385.72 1042.32,387.51 1043.61,390.63 1044.89,392.85 1046.18,394.63 1047.46,392.85 1048.75,395.52 1050.03,397.74 1051.32,397.74 1052.60,398.63 1053.89,400.41 1055.17,404.40 1056.46,403.07 1057.74,403.95 1059.03,403.51 1060.31,407.05 1061.60,407.50 1062.88,407.05 1064.17,410.15 1065.45,408.38 1066.74,409.71 1068.03,409.27 1069.31,411.48 1070.60,410.59 1071.88,410.15 1073.17,413.69 1074.45,414.13 1075.74,413.69 1077.02,412.36 1078.31,413.24 1079.59,415.01 1080.88,415.45 1082.16,416.33 1083.44,414.13 1084.73,417.22 1086.01,414.57 1087.30,416.33 1088.58,415.89 1089.87,415.89 1091.15,417.22 1092.44,417.22 1093.72,418.54 1095.01,416.77 1096.29,418.10 1097.58,418.10 1098.86,417.66 1100.15,418.54 1101.43,417.66 1102.72,417.66 1104.00,417.22 1105.29,419.42 1106.57,421.18 1107.86,418.54 1109.14,419.86 1110.43,418.54 1111.71,418.98 1113.00,418.54 1114.28,419.42 1115.57,419.86 1116.85,418.98 1118.14,419.86 1119.42,419.42 1120.71,420.74 1121.99,419.86 1123.28,419.42 1124.56,420.74 1125.85,420.30 1127.13,418.98 1128.42,422.50 1129.70,418.54 1130.99,419.42 1132.28,418.98 1133.56,420.74 1134.85,418.10 1136.13,419.86 1137.42,417.66 1138.70,377.23 1139.99,372.75 1141.27,374.09 1142.56,377.67 1143.84,380.36 1145.12,383.04 1146.41,384.83 1147.69,387.51 1148.98,387.95 1150.26,390.63 1151.55,393.74 1152.83,394.63 1154.12,395.52 1155.40,397.74 1156.69,396.41 1157.97,399.96 1159.26,399.08 1160.54,400.41 1161.83,403.51 1163.11,404.84 1164.40,403.95 1165.68,406.17 1166.97,405.73 1168.25,407.50 1169.54,408.38 1170.82,408.82 1172.11,408.38 1173.39,410.59 1174.68,411.48 1175.96,411.04 1177.25,413.24 1178.53,412.80 1179.82,408.82 1181.10,412.36 1182.39,413.24 1183.67,413.24 1184.96,413.24 1186.24,415.45 1187.53,415.01 1188.81,417.22 1190.10,415.89 1191.38,416.33 1192.67,416.33 1193.95,415.45 1195.24,417.22 1196.53,417.66 1197.81,415.89 1199.10,415.89 1200.38,417.22 1201.67,416.33 1202.95,418.10 1204.24,419.42 1205.52,418.10 1206.81,416.33 1208.09,418.98 1209.38,415.89 1210.66,417.66 1211.94,418.54 1213.23,419.42 1214.51,418.98 1215.80,419.86 1217.08,418.54 1218.37,417.22 1219.65,417.22 1220.94,418.54 1222.22,419.42 1223.51,418.98 1224.79,418.54 1226.08,420.30 1227.36,419.86 1228.65,418.98 1229.93,418.54 1231.22,420.30 1232.50,421.18 1233.79,421.62 1235.07,419.42 1236.36,377.23 1237.64,373.64 1238.93,373.64 1240.21,377.23 1241.50,379.02 1242.78,380.81 1244.07,385.27 1245.35,386.17 1246.64,388.40 1247.92,390.63 1249.21,390.63 1250.49,393.74 1251.78,395.52 1253.06,396.41 1254.35,398.19 1255.63,400.41 1256.92,399.52 1258.20,401.74 1259.49,402.62 1260.78,403.95 1262.06,403.95 1263.35,405.73 1264.63,405.28 1265.92,406.17 1267.20,408.38 1268.49,409.27 1269.77,409.71 1271.06,409.71 1272.34,411.48 1273.62,409.71 1274.91,412.36 1276.19,413.69 1277.48,412.80 1278.76,414.57 1280.05,411.92 1281.33,413.24 1282.62,413.69 1283.90,414.13 1285.19,413.24 1286.47,415.01 1287.76,414.57 1289.04,415.45 1290.33,415.89 1291.61,415.89 1292.90,416.33 1294.18,415.89 1295.47,414.13 1296.75,416.33 1298.04,416.77 1299.32,417.22 1300.61,417.22 1301.89,417.22 1303.18,418.54 1304.46,418.98 1305.75,418.10 1307.03,418.10 1308.32,418.98 1309.60,419.42 1310.89,418.54 1312.17,417.66 1313.46,416.77 1314.74,419.42 1316.03,418.98 1317.31,419.42 1318.60,420.74 1319.88,420.30 1321.17,419.86 1322.45,419.86 1323.74,419.42 1325.03,418.98 1326.31,420.30 1327.60,421.62 1328.88,420.30 1330.17,421.62 1331.45,418.54 1332.74,419.42 1334.02,419.86 1335.31,421.62 1336.59,381.70 1337.88,373.19 1339.16,372.75 1340.44,375.44 1341.73,378.57 1343.01,381.70 1344.30,383.04 1345.58,386.17 1346.87,388.84 1348.15,391.52 1349.44,392.41 1350.72,393.74 1352.01,395.52 1353.29,395.97 1354.58,397.74 1355.86,398.19 1357.15,399.96 1358.43,402.62 1359.72,402.18 1361.00,404.40 1362.29,405.28 1363.57,405.28 1364.86,405.28 1366.14,405.73 1367.43,406.61 1368.71,407.50 1370.00,409.27"/>
<polyline fill="none" stroke="#ff7f0e" stroke-width="1.0" points="85.00,412.80 86.29,413.69 87.57,413.24 88.85,413.24 90.14,414.13 91.43,414.57 92.71,415.45 93.99,415.45 95.28,415.89 96.57,415.89 97.85,415.45 99.13,391.07 100.42,371.40 101.71,368.71 102.99,372.75 104.27,375.88 105.56,377.67 106.85,380.81 108.13,382.59 109.41,384.83 110.70,388.84 111.99,389.73 113.27,391.96 114.55,392.41 115.84,394.63 117.12,395.08 118.41,397.30 119.69,396.85 120.98,398.63 122.26,401.29 123.55,401.74 124.83,402.62 126.12,404.40 127.40,404.40 128.69,405.73 129.97,407.05 131.26,408.38 132.54,406.61 133.83,407.50 135.12,408.82 136.40,408.82 137.68,409.71 138.97,409.71 140.26,411.04 141.54,410.59 142.82,411.04 144.11,411.48 145.40,412.36 146.68,411.48 147.96,413.69 149.25,415.01 150.54,414.13 151.82,415.45 153.10,414.13 154.39,415.01 155.68,414.13 156.96,415.01 158.24,415.89 159.53,415.45 160.82,415.01 162.10,416.77 163.38,417.66 164.67,377.23 165.96,370.50 167.24,371.40 168.52,375.88 169.81,377.67 171.10,380.81 172.38,380.81 173.66,384.83 174.95,385.27 176.24,387.51 177.52,389.29 178.80,392.41 180.09,392.85 181.38,394.19 182.66,395.97 183.94,396.85 185.23,398.63 186.51,399.96 187.80,400.41 189.08,402.62 190.37,401.74 191.65,403.51 192.94,403.95 194.22,403.51 195.51,405.73 196.79,407.05 198.08,407.94 199.37,409.71 200.65,408.82 201.93,408.82 203.22,409.71 204.51,411.92 205.79,410.59 207.07,411.48 208.36,413.24 209.65,413.69 210.93,413.69 212.21,412.36 213.50,414.13 214.79,414.57 216.07,414.13 217.35,414.13 218.64,414.13 219.93,416.33 221.21,415.01 222.49,414.57 223.78,415.45 225.07,416.33 226.35,417.22 227.63,417.22 228.92,410.15 230.21,372.30 231.49,369.16 232.77,371.40 234.06,374.99 235.35,375.44 236.63,379.46 237.91,380.81 239.20,384.38 240.49,385.72 241.77,389.29 243.05,390.18 244.34,392.41 245.62,394.63 246.91,394.63 248.19,398.63 249.48,400.41 250.76,399.96 252.05,399.96 253.33,402.18 254.62,403.07 255.90,403.95 257.19,405.73 258.47,404.40 259.76,406.17 261.04,407.50 262.33,409.71 263.62,409.27 264.90,407.50 266.18,410.15 267.47,410.59 268.76,410.59 270.04,411.92 271.32,411.48 272.61,412.36 273.90,412.36 275.18,415.45 276.46,411.48 277.75,414.57 279.04,413.69 280.32,412.80 281.60,415.01 282.89,414.57 284.18,413.69 285.46,415.45 286.74,416.33 288.03,416.33 289.32,416.33 290.60,415.45 291.88,416.33 293.17,415.01 294.46,376.78 295.74,368.26 297.02,369.60 298.31,372.75 299.60,377.67 300.88,378.12 302.16,381.70 303.45,383.93 304.74,384.83 306.02,387.95 307.30,390.63 308.59,391.07 309.88,393.74 311.16,395.97 312.44,395.97 313.73,397.30 315.01,399.08 316.30,399.52 317.58,399.96 318.87,400.85 320.15,402.18 321.44,405.28 322.72,406.61 324.01,407.50 325.29,406.17 326.58,407.05 327.87,407.50 329.15,407.94 330.43,408.82 331.72,409.27 333.01,411.04 334.29,411.04 335.57,411.92 336.86,411.48 338.15,412.36 339.43,414.13 340.71,413.69 342.00,413.24 343.29,414.13 344.57,414.57 345.85,414.13 347.14,414.57 348.43,414.13 349.71,414.13 350.99,415.45 352.28,415.01 353.57,416.77 354.85,414.57 356.13,416.77 357.42,414.13 358.71,415.89 359.99,382.15 361.27,369.16 362.56,369.16 363.85,371.40 365.13,373.64 366.41,379.02 367.70,381.70 368.99,383.93 370.27,386.17 371.55,387.51 372.84,389.73 374.12,389.73 375.41,391.52 376.69,393.74 377.98,395.52 379.26,396.41 380.55,397.30 381.83,399.52 383.12,399.96 384.40,400.41 385.69,402.62 386.97,403.07 388.26,404.40 389.54,404.84 390.83,405.73 392.12,406.61 393.40,405.73 394.68,407.05 395.97,409.27 397.26,411.04 398.54,409.27 399.82,410.15 401.11,409.71 402.40,410.59 403.68,413.69 404.96,413.24 406.25,413.24 407.54,413.69 408.82,413.69 410.10,413.69 411.39,415.01 412.68,415.01 413.96,414.13 415.24,415.01 416.53,415.45 417.82,415.01 419.10,382.15 420.38,366.91 421.67,368.26 422.96,371.40 424.24,373.19 425.52,377.67 426.81,379.02 428.10,382.15 429.38,384.83 430.66,386.17 431.95,387.51 433.24,389.29 434.52,391.52 435.80,393.30 437.09,394.63 438.38,394.63 439.66,398.19 440.94,399.08 442.23,399.08 443.51,400.41 444.80,403.95 446.08,402.62 447.37,403.95 448.65,404.40 449.94,406.17 451.22,405.73 452.51,407.50 453.79,407.50 455.08,407.05 456.37,410.15 457.65,409.27 458.93,410.15 460.22,410.59 461.51,411.48 462.79,411.48 464.07,412.80 465.36,411.04 466.65,411.48 467.93,412.80 469.21,412.36 470.50,414.57 471.79,413.24 473.07,412.80 474.35,413.69 475.64,412.36 476.93,411.04 478.21,411.04 479.49,411.04 480.78,409.27 482.07,395.08 483.35,363.31 484.63,361.06 485.92,363.76 487.21,366.46 488.49,368.71 489.77,370.50 491.06,371.40 492.35,373.64 493.63,374.09 494.91,374.54 496.20,376.78 497.49,379.91 498.77,379.02 500.05,381.70 501.34,383.04 502.62,382.59 503.91,385.72 505.19,386.17 506.48,386.61 507.76,387.51 509.05,387.95 510.33,389.73 511.62,389.73 512.90,389.29 514.19,389.73 515.47,390.63 516.76,392.41 518.04,393.30 519.33,391.96 520.62,393.30 521.90,394.63 523.18,392.41 524.47,395.08 525.76,396.41 527.04,395.97 528.32,395.52 529.61,396.85 530.90,395.97 532.18,395.97 533.46,396.41 534.75,397.30 536.04,397.74 537.32,397.30 538.60,397.74 539.89,396.41 541.18,397.30 542.46,398.63 543.74,400.41 545.03,367.81 546.32,353.39 547.60,354.29 548.88,356.55 550.17,357.90 551.46,362.41 552.74,365.56 554.02,366.46 555.31,367.81 556.60,370.50 557.88,371.40 559.16,374.54 560.45,375.44 561.74,377.23 563.02,377.67 564.30,378.57 565.59,381.25 566.88,381.25 568.16,383.49 569.44,386.17 570.73,385.72 572.01,385.72 573.30,387.06 574.58,385.72 575.87,386.17 577.15,387.95 578.44,374.99 579.72,351.13 581.01,351.58 582.29,352.03 583.58,357.45 584.87,357.90 586.15,359.71 587.43,362.86 588.72,366.01 590.01,368.26 591.29,370.05 592.57,373.64 593.86,374.09 595.15,374.09 596.43,375.44 597.71,378.12 599.00,379.91 600.29,379.91 601.57,380.36 602.85,383.93 604.14,382.59 605.43,384.38 606.71,385.27 607.99,386.17 609.28,386.17 610.57,386.61 611.85,385.72 613.13,376.33 614.42,365.56 615.71,350.68 616.99,338.89 618.27,329.79 619.56,318.37 620.85,310.12 622.13,299.54 623.41,293.08 624.70,286.14 625.99,276.87 627.27,269.89 628.55,260.09 629.84,250.26 631.12,238.98 632.41,223.88 633.69,209.65 634.98,200.12 636.26,189.61 637.55,183.38 638.83,174.25 640.12,170.88 641.40,166.06 642.69,161.23 643.97,155.42 645.26,150.58 646.54,148.15 647.83,144.27 649.12,140.38 650.40,135.99 651.68,131.60 652.97,127.21 654.26,123.79 655.54,120.85 656.82,119.38 658.11,117.91 659.40,115.95 660.68,115.95 661.96,113.50 663.25,112.03 664.54,112.52 665.82,112.52 667.10,112.52 668.39,112.03 669.68,111.04 670.96,120.36 672.24,126.72 673.53,126.72 674.82,125.74 676.10,128.19 677.38,128.19 678.67,127.21 679.96,127.21 681.24,129.65 682.52,130.14 683.81,127.70 685.10,128.68 686.38,128.19 687.66,128.19 688.95,128.19 690.24,131.60 691.52,130.14 692.80,130.63 694.09,128.19 695.38,128.19 696.66,125.74 697.94,125.26 699.23,124.28 700.51,124.77 701.80,124.28 703.08,121.83 704.37,120.85 705.65,119.87 706.94,118.40 708.22,115.46 709.51,116.44 710.79,116.44 712.08,115.46 713.37,113.99 714.65,112.03 715.93,111.53 717.22,111.04 718.51,112.52 719.79,109.08 721.07,110.55 722.36,109.08 723.65,109.57 724.93,108.59 726.21,108.59 727.50,107.60 728.79,108.59 730.07,108.59 731.35,110.06 732.64,109.08 733.93,110.06 735.21,110.06 736.49,108.59 737.78,108.10 739.07,110.06 740.35,109.57 741.63,111.04 742.92,110.06 744.21,112.03 745.49,113.01 746.77,112.52 748.06,113.50 749.35,113.01 750.63,112.52 751.91,112.03 753.20,114.97 754.49,112.52 755.77,113.01 757.05,113.50 758.34,113.99 759.62,114.48 760.91,113.99 762.19,113.50 763.48,115.46 764.76,116.44 766.05,113.01 767.33,114.48 768.62,114.97 769.90,113.01 771.19,112.03 772.47,113.50 773.76,112.03 775.04,110.06 776.33,112.03 777.62,113.50 778.90,114.48 780.18,113.01 781.47,112.03 782.76,113.50 784.04,112.52 785.32,111.04 786.61,110.55 787.90,108.59 789.18,110.06 790.46,110.06 791.75,112.52 793.04,111.53 794.32,111.53 795.60,111.04 796.89,117.42 798.18,124.77 799.46,130.14 800.74,135.99 802.03,141.35 803.32,144.27 804.60,149.61 805.88,149.12 807.17,149.61 808.46,156.39 809.74,162.68 811.02,172.80 812.31,178.58 813.60,183.86 814.88,190.09 816.16,191.52 817.45,200.60 818.74,202.51 820.02,205.84 821.30,214.40 822.59,214.40 823.87,220.09 825.16,222.93 826.44,225.77 827.73,231.44 829.01,231.91 830.30,235.22 831.58,241.34 832.87,241.81 834.15,246.98 835.44,251.20 836.72,260.09 838.01,267.09 839.29,275.01 840.58,283.83 841.87,290.31 843.15,296.77 844.43,304.15 845.72,309.66 847.01,316.08 848.29,320.66 849.57,325.69 850.86,331.16 852.15,336.16 853.43,340.71 854.71,344.34 856.00,347.51 857.29,352.03 858.57,355.20 859.85,358.35 861.14,362.86 862.43,365.11 863.71,369.16 864.99,369.60 866.28,372.75 867.57,376.78 868.85,378.12 870.13,380.81 871.42,382.59 872.71,383.93 873.99,388.40 875.27,388.84 876.56,389.73 877.85,391.52 879.13,392.85 880.41,395.97 881.70,396.41 882.99,364.21 884.27,356.10 885.55,356.55 886.84,361.06 888.12,364.21 889.41,367.36 890.69,370.95 891.98,374.09 893.26,377.23 894.55,379.46 895.83,380.81 897.12,383.04 898.40,383.93 899.69,387.51 900.97,390.18 902.26,390.63 903.54,391.52 904.83,393.74 906.12,394.19 907.40,395.08 908.68,397.74 909.97,399.52 911.26,400.41 912.54,400.85 913.82,403.07 915.11,402.62 916.40,403.07 917.68,405.28 918.96,405.73 920.25,406.61 921.54,407.94 922.82,407.50 924.10,408.38 925.39,408.38 926.68,410.15 927.96,408.82 929.24,407.94 930.53,411.48 931.82,411.04 933.10,411.04 934.38,411.48 935.67,412.80 936.96,412.36 938.24,413.69 939.52,412.80 940.81,412.36 942.10,415.01 943.38,414.13 944.66,414.13 945.95,414.57 947.24,415.01 948.52,416.33 949.80,415.45 951.09,415.45 952.38,414.57 953.66,416.33 954.94,415.89 956.23,417.22 957.51,416.33 958.80,416.77 960.08,415.89 961.37,415.89 962.65,415.89 963.94,417.22 965.22,416.77 966.51,418.10 967.79,417.66 969.08,418.10 970.37,418.98 971.65,418.98 972.93,416.77 974.22,418.10 975.51,407.05 976.79,371.40 978.07,370.05 979.36,372.75 980.65,375.44 981.93,377.67 983.21,382.15 984.50,384.38 985.79,384.38 987.07,387.51 988.35,387.51 989.64,391.07 990.93,389.29 992.21,392.85 993.49,393.74 994.78,395.08 996.07,397.74 997.35,398.63 998.63,399.52 999.92,400.85 1001.21,402.62 1002.49,404.40 1003.77,406.17 1005.06,406.17 1006.35,406.61 1007.63,406.17 1008.91,407.50 1010.20,407.94 1011.49,409.27 1012.77,407.94 1014.05,407.94 1015.34,411.04 1016.62,410.15 1017.91,411.48 1019.19,411.92 1020.48,412.80 1021.76,411.04 1023.05,411.92 1024.33,411.48 1025.62,411.92 1026.90,412.36 1028.19,413.24 1029.47,412.36 1030.76,414.13 1032.04,412.36 1033.33,412.80 1034.62,413.69 1035.90,414.13 1037.18,415.45 1038.47,416.77 1039.76,417.22 1041.04,416.77 1042.32,416.33 1043.61,415.89 1044.90,416.77 1046.18,417.66 1047.46,418.98 1048.75,418.54 1050.04,418.54 1051.32,417.66 1052.60,418.10 1053.89,419.86 1055.18,417.66 1056.46,417.66 1057.74,418.98 1059.03,421.62 1060.32,419.42 1061.60,419.42 1062.88,418.98 1064.17,419.42 1065.46,420.74 1066.74,418.10 1068.02,420.30 1069.31,420.74 1070.60,419.86 1071.88,421.62 1073.16,421.62 1074.45,418.54 1075.74,418.54 1077.02,419.42 1078.30,418.54 1079.59,379.91 1080.88,369.60 1082.16,372.30 1083.44,375.88 1084.73,376.78 1086.01,379.46 1087.30,382.15 1088.58,385.27 1089.87,385.27 1091.15,388.40 1092.44,390.63 1093.72,393.30 1095.01,396.85 1096.29,397.30 1097.58,395.52 1098.87,397.30 1100.15,398.19 1101.43,398.63 1102.72,401.29 1104.01,401.74 1105.29,403.95 1106.57,403.07 1107.86,405.28 1109.15,405.73 1110.43,407.05 1111.71,407.50 1113.00,408.38 1114.29,410.15 1115.57,410.15 1116.85,411.92 1118.14,412.80 1119.43,411.92 1120.71,412.80 1121.99,412.36 1123.28,412.80 1124.57,413.69 1125.85,415.01 1127.13,414.13 1128.42,415.01 1129.71,414.13 1130.99,416.77 1132.27,416.77 1133.56,415.89 1134.85,415.89 1136.13,416.33 1137.41,416.33 1138.70,417.22 1139.99,417.66 1141.27,418.10 1142.55,417.22 1143.84,418.10 1145.12,416.33 1146.41,417.66 1147.69,418.10 1148.98,417.66 1150.26,419.86 1151.55,417.22 1152.83,419.42 1154.12,417.66 1155.40,418.98 1156.69,419.86 1157.97,418.10 1159.26,417.22 1160.54,418.10 1161.83,418.10 1163.12,419.42 1164.40,421.62 1165.68,420.74 1166.97,419.86 1168.26,418.98 1169.54,419.42 1170.82,418.98 1172.11,418.98 1173.40,421.18 1174.68,419.42 1175.96,420.74 1177.25,419.86 1178.54,418.98 1179.82,417.66 1181.10,419.42 1182.39,417.66 1183.68,415.01 1184.96,374.99 1186.24,370.95 1187.53,371.85 1188.82,374.99 1190.10,378.57 1191.38,382.59 1192.67,385.27 1193.96,387.51 1195.24,387.51 1196.52,390.18 1197.81,390.63 1199.10,394.19 1200.38,394.63 1201.66,395.08 1202.95,397.74 1204.24,398.63 1205.52,399.96 1206.80,401.29 1208.09,403.07 1209.38,403.07 1210.66,404.84 1211.94,405.28 1213.23,404.84 1214.51,406.17 1215.80,407.05 1217.08,407.94 1218.37,409.27 1219.65,411.04 1220.94,408.82 1222.22,410.15 1223.51,412.36 1224.79,413.24 1226.08,414.57 1227.37,415.45 1228.65,415.01 1229.93,415.45 1231.22,415.45 1232.51,415.01 1233.79,415.89 1235.07,414.13 1236.36,415.01 1237.65,415.45 1238.93,416.33 1240.21,415.45 1241.50,415.89 1242.79,415.01 1244.07,417.22 1245.35,418.10 1246.64,418.10 1247.93,417.66 1249.21,418.54 1250.49,416.77 1251.78,418.98 1253.07,419.86 1254.35,418.10 1255.63,418.54 1256.92,418.98 1258.21,418.98 1259.49,417.22 1260.77,418.98 1262.06,419.86 1263.35,418.54 1264.63,418.98 1265.91,417.22 1267.20,419.86 1268.49,419.42 1269.77,418.98 1271.05,417.66 1272.34,417.66 1273.62,418.54 1274.91,418.10 1276.19,419.42 1277.48,420.30 1278.76,421.18 1280.05,418.54 1281.33,419.86 1282.62,419.42 1283.90,399.96 1285.19,370.50 1286.47,371.40 1287.76,372.75 1289.04,375.44 1290.33,379.02 1291.62,380.36 1292.90,382.59 1294.18,386.17 1295.47,388.40 1296.76,390.63 1298.04,390.63 1299.32,391.96 1300.61,393.74 1301.90,396.41 1303.18,397.30 1304.46,399.96 1305.75,400.41 1307.04,400.85 1308.32,403.07 1309.60,403.51 1310.89,403.95 1312.18,405.73 1313.46,406.17 1314.74,407.50 1316.03,407.50 1317.32,408.82 1318.60,410.15 1319.88,411.04 1321.17,410.59 1322.46,410.59 1323.74,411.04 1325.02,412.80 1326.31,412.80 1327.60,412.36 1328.88,415.45 1330.16,413.24 1331.45,414.57 1332.74,414.13 1334.02,416.33 1335.30,415.45 1336.59,418.10 1337.88,417.22 1339.16,416.33 1340.44,414.13 1341.73,415.89 1343.01,415.89 1344.30,418.10 1345.58,417.66 1346.87,418.10 1348.15,417.22 1349.44,418.98 1350.72,418.10 1352.01,418.54 1353.29,416.77 1354.58,418.54 1355.87,418.54 1357.15,419.42 1358.43,419.86 1359.72,417.66 1361.01,417.66 1362.29,418.98 1363.57,419.42 1364.86,418.54 1366.15,417.66 1367.43,419.42 1368.71,418.10 1370.00,419.86"/>
<polyline fill="none" stroke="#2ca02c" stroke-width="1.0" points="85.00,399.96 86.29,400.41 87.57,401.29 88.86,402.18 90.14,401.74 91.43,403.07 92.71,405.73 93.99,404.40 95.28,406.17 96.57,407.50 97.85,408.38 99.14,410.15 100.42,408.82 101.71,409.27 102.99,410.59 104.27,412.36 105.56,412.36 106.85,411.48 108.13,411.04 109.42,412.36 110.70,412.80 111.99,412.80 113.27,414.13 114.55,413.69 115.84,415.89 117.12,415.45 118.41,415.45 119.70,415.89 120.98,415.89 122.27,416.33 123.55,415.89 124.83,415.45 126.12,415.01 127.40,405.28 128.69,368.71 129.98,367.36 131.26,368.71 132.55,373.64 133.83,376.33 135.12,379.91 136.40,383.04 137.68,384.38 138.97,383.93 140.26,385.72 141.54,389.29 142.83,390.18 144.11,392.41 145.40,395.08 146.68,395.52 147.96,398.19 149.25,399.52 150.54,399.96 151.82,402.18 153.11,403.07 154.39,402.62 155.68,405.73 156.96,403.95 158.24,405.73 159.53,406.61 160.82,407.94 162.10,407.05 163.39,407.50 164.67,409.27 165.96,410.59 167.24,409.27 168.52,410.15 169.81,411.04 171.10,411.04 172.38,412.36 173.67,411.92 174.95,412.36 176.24,413.24 177.52,414.13 178.80,413.24 180.09,413.69 181.38,412.36 182.66,414.13 183.95,414.57 185.23,415.01 186.52,415.89 187.80,415.89 189.08,417.22 190.37,415.89 191.65,415.89 192.94,416.33 194.23,414.57 195.51,372.75 196.80,366.01 198.08,368.71 199.37,372.75 200.65,377.67 201.93,379.02 203.22,382.59 204.51,383.49 205.79,386.17 207.08,387.95 208.36,388.40 209.65,389.29 210.93,392.85 212.21,395.08 213.50,393.74 214.79,395.52 216.07,397.74 217.36,398.63 218.64,400.85 219.93,402.18 221.21,403.95 222.49,403.07 223.78,405.28 225.07,404.40 226.35,405.28 227.64,406.17 228.92,407.05 230.21,407.50 231.49,409.27 232.77,409.71 234.06,408.38 235.35,409.27 236.63,411.04 237.92,411.92 239.20,413.24 240.49,413.69 241.77,412.36 243.05,412.80 244.34,412.36 245.62,414.13 246.91,413.24 248.20,415.01 249.48,415.01 250.77,414.13 252.05,415.89 253.33,415.89 254.62,416.77 255.90,415.45 257.19,416.33 258.48,403.07 259.76,369.60 261.05,367.81 262.33,369.60 263.62,372.30 264.90,374.54 266.18,379.02 267.47,379.02 268.76,381.70 270.04,384.83 271.33,387.51 272.61,388.40 273.90,390.18 275.18,392.41 276.46,395.08 277.75,395.97 279.04,396.41 280.32,396.41 281.61,399.08 282.89,398.63 284.18,401.29 285.46,401.74 286.74,402.62 288.03,403.51 289.32,405.73 290.60,405.28 291.89,406.17 293.17,408.38 294.46,407.05 295.74,409.71 297.02,410.15 298.31,409.27 299.60,410.59 300.88,412.80 302.17,411.48 303.45,411.92 304.74,412.36 306.02,412.80 307.30,414.13 308.59,411.92 309.88,414.13 311.16,413.24 312.45,414.13 313.73,414.57 315.02,415.01 316.30,414.13 317.58,415.45 318.87,385.72 320.15,367.81 321.44,367.81 322.73,370.95 324.01,374.54 325.30,377.67 326.58,377.67 327.87,381.70 329.15,382.15 330.43,383.93 331.72,386.17 333.01,390.18 334.29,391.07 335.58,394.19 336.86,395.52 338.15,395.52 339.43,398.19 340.71,399.08 342.00,400.41 343.29,399.96 344.57,402.18 345.86,402.18 347.14,401.74 348.43,404.84 349.71,404.40 350.99,407.50 352.28,406.61 353.57,408.82 354.85,408.82 356.14,410.59 357.42,410.15 358.71,411.04 359.99,410.59 361.27,412.36 362.56,411.92 363.85,412.80 365.13,412.80 366.42,414.57 367.70,414.13 368.99,414.13 370.27,413.69 371.55,413.69 372.84,414.13 374.12,414.57 375.41,413.69 376.70,415.01 377.98,415.45 379.27,414.13 380.55,415.89 381.83,374.54 383.12,367.81 384.40,369.60 385.69,370.95 386.98,377.23 388.26,379.91 389.55,380.36 390.83,382.15 392.12,384.83 393.40,387.06 394.68,389.29 395.97,393.30 397.26,392.41 398.54,393.30 399.83,395.08 401.11,396.41 402.40,398.19 403.68,397.74 404.96,399.52 406.25,402.62 407.54,402.62 408.82,403.51 410.11,403.51 411.39,405.73 412.68,406.17 413.96,407.05 415.24,407.50 416.53,407.50 417.82,407.05 419.10,409.27 420.39,411.04 421.67,411.48 422.96,410.59 424.24,411.48 425.52,411.04 426.81,413.24 428.10,413.24 429.38,415.45 430.67,414.57 431.95,413.24 433.24,414.57 434.52,413.24 435.80,415.89 437.09,415.89 438.38,414.13 439.66,415.45 440.95,376.78 442.23,367.36 443.52,368.71 444.80,374.09 446.08,375.44 447.37,377.23 448.65,380.81 449.94,383.93 451.23,386.17 452.51,386.61 453.80,389.73 455.08,389.73 456.37,391.07 457.65,393.30 458.93,395.08 460.22,396.85 461.51,397.30 462.79,398.63 464.08,400.41 465.36,399.96 466.65,402.18 467.93,400.41 469.21,403.95 470.50,404.40 471.79,404.84 473.07,408.38 474.36,408.82 475.64,409.71 476.93,409.71 478.21,408.38 479.49,408.82 480.78,409.27 482.07,407.05 483.35,406.17 484.64,405.28 485.92,407.50 487.21,408.38 488.49,405.28 489.77,404.84 491.06,405.28 492.35,404.40 493.63,405.28 494.92,404.84 496.20,403.51 497.49,404.84 498.77,403.51 500.05,403.51 501.34,403.51 502.62,402.62 503.91,364.21 505.20,357.00 506.48,357.90 507.77,361.51 509.05,362.41 510.33,366.46 511.62,368.71 512.90,368.26 514.19,370.05 515.48,372.75 516.76,375.44 518.05,375.88 519.33,378.12 520.62,380.81 521.90,380.81 523.18,382.15 524.47,382.15 525.76,383.04 527.04,383.49 528.33,386.17 529.61,386.61 530.90,387.51 532.18,387.51 533.46,388.40 534.75,387.51 536.04,389.73 537.32,391.07 538.61,391.52 539.89,392.41 541.18,391.07 542.46,393.30 543.74,391.52 545.03,392.85 546.32,394.19 547.60,393.74 548.89,394.19 550.17,395.97 551.46,395.97 552.74,394.63 554.02,394.63 555.31,396.85 556.60,397.74 557.88,396.41 559.17,397.30 560.45,399.96 561.74,396.85 563.02,397.30 564.30,398.19 565.59,395.97 566.88,397.74 568.16,399.52 569.45,396.41 570.73,357.45 572.02,353.84 573.30,355.65 574.58,356.10 575.87,359.71 577.15,364.66 578.44,364.21 579.73,366.01 581.01,369.60 582.30,371.40 583.58,371.40 584.87,374.99 586.15,374.54 587.43,377.23 588.72,378.57 590.01,380.81 591.29,382.59 592.58,382.59 593.86,381.70 595.15,383.49 596.43,382.15 597.71,387.06 599.00,385.72 600.29,387.51 601.57,362.86 602.86,347.51 604.14,349.32 605.43,352.94 606.71,353.39 607.99,357.45 609.28,359.71 610.57,363.31 611.85,365.56 613.14,367.36 614.42,368.71 615.71,370.50 616.99,372.30 618.27,374.54 619.56,366.91 620.85,355.20 622.13,340.25 623.42,326.60 624.70,313.33 625.99,304.61 627.27,297.24 628.55,292.16 629.84,289.38 631.12,283.36 632.41,277.33 633.70,272.22 634.98,261.03 636.27,250.73 637.55,237.10 638.83,226.24 640.12,214.87 641.40,205.36 642.69,193.43 643.98,185.30 645.26,176.65 646.55,170.88 647.83,170.40 649.12,167.02 650.40,163.64 651.68,162.19 652.97,155.42 654.26,150.58 655.54,148.15 656.83,143.78 658.11,140.86 659.40,136.97 660.68,135.51 661.96,133.56 663.25,132.58 664.54,131.12 665.82,130.14 667.11,128.68 668.39,128.19 669.68,127.21 670.96,127.21 672.24,130.14 673.53,128.19 674.82,132.58 676.10,134.04 677.39,138.43 678.67,139.40 679.96,143.29 681.24,142.81 682.52,144.75 683.81,146.69 685.10,147.18 686.38,149.61 687.67,150.58 688.95,147.67 690.24,146.69 691.52,145.24 692.80,144.27 694.09,145.72 695.38,144.75 696.66,147.67 697.95,147.18 699.23,147.18 700.52,145.24 701.80,143.29 703.08,142.32 704.37,137.45 705.65,135.99 706.94,133.07 708.23,130.14 709.51,130.14 710.80,127.70 712.08,126.23 713.37,124.77 714.65,124.28 715.93,123.30 717.22,123.30 718.51,121.34 719.79,120.36 721.08,120.85 722.36,122.32 723.65,119.87 724.93,119.38 726.21,117.91 727.50,116.93 728.79,118.40 730.07,116.93 731.36,120.85 732.64,125.74 733.93,134.04 735.21,135.99 736.49,135.02 737.78,134.53 739.07,135.02 740.35,135.02 741.64,135.51 742.92,136.97 744.21,136.48 745.49,136.97 746.77,136.97 748.06,129.65 749.35,128.19 750.63,131.12 751.92,130.63 753.20,128.68 754.49,131.12 755.77,129.16 757.05,127.70 758.34,127.21 759.62,128.68 760.91,126.72 762.20,127.21 763.48,125.74 764.77,123.79 766.05,125.26 767.33,125.74 768.62,125.26 769.90,124.28 771.19,127.70 772.48,130.14 773.76,131.60 775.05,128.68 776.33,123.79 777.62,125.74 778.90,124.77 780.18,125.26 781.47,123.30 782.76,123.79 784.04,124.77 785.33,124.28 786.61,128.19 787.90,126.23 789.18,123.30 790.46,121.83 791.75,122.32 793.04,121.83 794.32,125.26 795.61,129.65 796.89,136.48 798.18,138.43 799.46,136.97 800.74,138.43 802.03,137.45 803.32,141.35 804.60,146.21 805.89,149.12 807.17,149.12 808.46,159.29 809.74,165.57 811.02,174.73 812.31,180.50 813.60,184.34 814.88,190.56 816.17,191.52 817.45,197.26 818.74,204.89 820.02,207.74 821.30,213.92 822.59,216.30 823.87,221.04 825.16,227.66 826.45,226.24 827.73,231.91 829.02,235.69 830.30,238.04 831.58,243.22 832.87,245.10 834.15,247.92 835.44,252.61 836.73,262.43 838.01,270.82 839.30,277.33 840.58,283.83 841.87,292.62 843.15,297.70 844.43,306.45 845.72,311.04 847.01,318.37 848.29,321.57 849.58,326.14 850.86,333.89 852.15,337.07 853.43,340.71 854.71,344.34 856.00,349.32 857.29,351.13 858.57,356.55 859.86,358.80 861.14,361.51 862.43,365.11 863.71,367.81 864.99,370.95 866.28,373.64 867.57,379.02 868.85,379.46 870.14,381.25 871.42,381.70 872.71,384.83 873.99,386.61 875.27,387.95 876.56,391.52 877.85,392.41 879.13,383.93 880.42,355.65 881.70,354.74 882.99,357.00 884.27,359.71 885.55,364.66 886.84,366.01 888.12,370.05 889.41,375.44 890.70,375.88 891.98,377.67 893.27,382.59 894.55,383.04 895.83,386.17 897.12,387.95 898.40,388.40 899.69,391.96 900.98,391.96 902.26,392.85 903.55,396.41 904.83,396.41 906.12,396.85 907.40,398.19 908.68,398.19 909.97,399.08 911.26,400.85 912.54,403.51 913.83,402.62 915.11,405.28 916.40,404.40 917.68,405.73 918.96,405.73 920.25,408.38 921.54,407.94 922.82,407.94 924.11,408.82 925.39,409.27 926.68,409.71 927.96,409.71 929.24,411.48 930.53,412.36 931.82,412.80 933.10,412.80 934.39,412.80 935.67,411.48 936.96,412.80 938.24,414.13 939.52,414.13 940.81,414.57 942.10,413.69 943.38,412.80 944.67,414.57 945.95,415.45 947.24,415.89 948.52,417.66 949.80,416.33 951.09,418.10 952.38,416.33 953.66,415.89 954.95,417.22 956.23,416.77 957.52,416.33 958.80,416.33 960.08,416.33 961.37,416.77 962.65,417.22 963.94,416.77 965.23,417.66 966.51,417.66 967.80,418.10 969.08,417.66 970.37,417.22 971.65,417.66 972.93,417.66 974.22,418.54 975.51,419.86 976.79,418.98 978.08,416.77 979.36,417.66 980.65,383.93 981.93,369.60 983.21,371.40 984.50,374.54 985.79,376.33 987.07,378.57 988.36,380.81 989.64,382.59 990.93,383.93 992.21,385.72 993.49,388.84 994.78,390.18 996.07,391.52 997.35,394.63 998.64,395.08 999.92,398.19 1001.21,398.63 1002.49,399.96 1003.77,398.19 1005.06,402.18 1006.35,401.74 1007.63,403.95 1008.92,403.07 1010.20,403.51 1011.49,404.40 1012.77,405.28 1014.05,407.05 1015.34,407.50 1016.62,407.05 1017.91,408.38 1019.20,411.04 1020.48,410.59 1021.77,411.48 1023.05,410.15 1024.33,412.80 1025.62,410.59 1026.90,411.92 1028.19,412.36 1029.48,412.36 1030.76,411.04 1032.05,412.80 1033.33,413.69 1034.62,412.36 1035.90,415.01 1037.18,414.57 1038.47,415.01 1039.76,415.89 1041.04,416.33 1042.33,416.77 1043.61,415.89 1044.90,417.22 1046.18,416.33 1047.46,416.33 1048.75,417.22 1050.04,418.54 1051.32,418.10 1052.61,417.22 1053.89,418.10 1055.18,418.54 1056.46,417.22 1057.74,417.22 1059.03,418.10 1060.32,418.54 1061.60,418.98 1062.89,419.42 1064.17,420.74 1065.46,418.98 1066.74,417.22 1068.02,418.10 1069.31,419.86 1070.60,418.98 1071.88,418.54 1073.17,417.22 1074.45,418.54 1075.74,418.98 1077.02,420.30 1078.30,418.54 1079.59,419.86 1080.88,417.66 1082.16,419.42 1083.45,383.04 1084.73,371.85 1086.02,372.30 1087.30,376.33 1088.58,377.23 1089.87,378.57 1091.15,382.15 1092.44,384.83 1093.73,385.72 1095.01,388.40 1096.30,389.73 1097.58,393.30 1098.87,393.30 1100.15,395.08 1101.43,396.41 1102.72,398.63 1104.01,397.74 1105.29,399.96 1106.58,400.85 1107.86,403.07 1109.15,403.51 1110.43,405.73 1111.71,404.84 1113.00,405.73 1114.29,407.50 1115.57,407.94 1116.86,408.82 1118.14,408.38 1119.43,410.59 1120.71,409.71 1121.99,411.48 1123.28,412.36 1124.57,412.80 1125.85,412.36 1127.14,413.69 1128.42,413.69 1129.71,414.13 1130.99,414.13 1132.27,412.36 1133.56,374.54 1134.85,370.50 1136.13,374.54 1137.42,375.88 1138.70,377.23 1139.99,382.59 1141.27,383.04 1142.55,386.17 1143.84,389.73 1145.12,387.51 1146.41,390.63 1147.70,391.07 1148.98,392.85 1150.27,393.74 1151.55,396.41 1152.83,397.30 1154.12,399.08 1155.40,399.52 1156.69,403.51 1157.98,403.51 1159.26,405.73 1160.55,403.95 1161.83,404.84 1163.12,406.61 1164.40,407.05 1165.68,408.38 1166.97,409.27 1168.26,411.04 1169.54,411.48 1170.83,411.92 1172.11,411.92 1173.40,412.80 1174.68,411.92 1175.96,412.80 1177.25,414.57 1178.54,415.45 1179.82,415.01 1181.11,413.69 1182.39,414.57 1183.68,415.45 1184.96,414.57 1186.24,415.01 1187.53,416.33 1188.82,415.89 1190.10,415.45 1191.39,415.89 1192.67,415.89 1193.96,415.89 1195.24,416.77 1196.52,419.86 1197.81,418.10 1199.10,417.66 1200.38,417.22 1201.67,417.22 1202.95,417.66 1204.24,418.54 1205.52,418.10 1206.80,420.30 1208.09,417.66 1209.38,418.98 1210.66,418.54 1211.95,418.54 1213.23,418.54 1214.52,419.42 1215.80,418.54 1217.08,418.10 1218.37,418.98 1219.65,419.42 1220.94,419.86 1222.23,419.42 1223.51,419.42 1224.80,418.98 1226.08,418.98 1227.37,419.86 1228.65,420.30 1229.93,419.86 1231.22,419.86 1232.51,418.54 1233.79,418.98 1235.08,418.54 1236.36,379.46 1237.65,375.88 1238.93,375.88 1240.21,377.23 1241.50,380.36 1242.79,383.49 1244.07,385.72 1245.36,386.61 1246.64,388.84 1247.93,392.41 1249.21,393.30 1250.49,394.19 1251.78,396.41 1253.07,396.41 1254.35,398.19 1255.64,399.96 1256.92,399.52 1258.21,403.95 1259.49,403.07 1260.77,403.95 1262.06,404.84 1263.35,405.73 1264.63,408.38 1265.92,407.94 1267.20,407.05 1268.49,408.82 1269.77,408.82 1271.05,411.04 1272.34,411.04 1273.62,411.92 1274.91,410.59 1276.20,414.13 1277.48,413.24 1278.77,414.13 1280.05,413.24 1281.33,414.57 1282.62,416.33 1283.90,415.45 1285.19,414.13 1286.48,416.33 1287.76,415.89 1289.05,417.22 1290.33,415.01 1291.62,418.10 1292.90,417.66 1294.18,417.22 1295.47,415.45 1296.76,417.22 1298.04,418.10 1299.33,417.66 1300.61,417.66 1301.90,418.10 1303.18,417.22 1304.46,418.10 1305.75,417.22 1307.04,417.66 1308.32,418.10 1309.61,418.10 1310.89,417.66 1312.18,418.10 1313.46,420.30 1314.74,418.54 1316.03,421.18 1317.32,418.98 1318.60,419.42 1319.89,419.42 1321.17,418.54 1322.46,417.66 1323.74,419.42 1325.02,420.74 1326.31,420.30 1327.60,421.62 1328.88,421.18 1330.17,419.42 1331.45,418.54 1332.74,419.42 1334.02,419.86 1335.30,417.22 1336.59,379.02 1337.88,374.54 1339.16,375.44 1340.45,377.67 1341.73,378.57 1343.02,381.70 1344.30,384.83 1345.58,385.72 1346.87,388.84 1348.15,390.63 1349.44,393.74 1350.73,392.85 1352.01,396.85 1353.30,396.85 1354.58,400.41 1355.87,400.41 1357.15,400.41 1358.43,401.29 1359.72,402.18 1361.01,403.07 1362.29,405.73 1363.58,405.73 1364.86,406.61 1366.15,407.94 1367.43,408.38 1368.71,408.82 1370.00,409.27"/>
<polyline fill="none" stroke="#d62728" stroke-width="1.0" points="85.00,408.38 86.29,408.82 87.57,411.92 88.85,411.92 90.14,411.04 91.42,412.36 92.71,412.80 93.99,413.24 95.28,412.36 96.57,412.36 97.85,414.57 99.13,412.80 100.42,414.57 101.70,416.33 102.99,414.13 104.27,416.77 105.56,415.45 106.85,417.22 108.13,417.22 109.41,415.45 110.70,415.89 111.98,416.33 113.27,416.33 114.55,416.77 115.84,418.98 117.12,416.77 118.41,417.22 119.70,415.89 120.98,397.74 122.26,365.56 123.55,366.46 124.83,370.05 126.12,371.85 127.40,375.88 128.69,376.33 129.98,380.81 131.26,384.38 132.54,386.17 133.83,387.06 135.11,390.18 136.40,390.63 137.68,391.96 138.97,394.63 140.26,396.85 141.54,397.30 142.82,398.63 144.11,399.96 145.39,401.29 146.68,403.95 147.96,402.62 149.25,402.18 150.54,405.73 151.82,405.73 153.10,407.05 154.39,406.61 155.67,407.05 156.96,409.27 158.24,408.82 159.53,410.15 160.82,411.04 162.10,410.15 163.38,411.92 164.67,410.15 165.95,410.15 167.24,413.24 168.52,411.92 169.81,415.45 171.10,414.57 172.38,415.01 173.66,415.01 174.95,414.57 176.23,413.69 177.52,414.57 178.80,415.01 180.09,416.33 181.38,416.33 182.66,415.45 183.95,415.45 185.23,417.66 186.51,416.77 187.80,416.77 189.08,374.09 190.37,364.21 191.65,367.81 192.94,371.85 194.23,373.64 195.51,375.44 196.79,377.23 198.08,380.81 199.36,382.15 200.65,386.17 201.93,388.84 203.22,388.84 204.51,392.41 205.79,392.41 207.07,392.85 208.36,396.41 209.64,396.85 210.93,400.41 212.21,400.85 213.50,403.07 214.79,403.07 216.07,402.18 217.35,402.62 218.64,404.84 219.92,405.28 221.21,406.61 222.49,407.05 223.78,408.82 225.07,409.27 226.35,408.82 227.63,410.15 228.92,410.59 230.20,410.59 231.49,412.80 232.77,412.80 234.06,412.80 235.35,411.92 236.63,412.80 237.91,413.69 239.20,411.48 240.48,412.36 241.77,413.69 243.05,415.01 244.34,415.01 245.62,415.89 246.91,417.66 248.20,416.77 249.48,418.10 250.76,416.77 252.05,417.66 253.33,407.94 254.62,367.81 255.90,364.66 257.19,367.36 258.48,371.85 259.76,372.30 261.04,375.44 262.33,380.36 263.61,382.15 264.90,384.38 266.18,387.06 267.47,388.40 268.76,391.07 270.04,393.30 271.32,393.30 272.61,394.19 273.89,395.97 275.18,397.74 276.46,399.96 277.75,399.96 279.04,399.96 280.32,401.29 281.60,404.40 282.89,405.28 284.17,406.17 285.46,407.05 286.74,406.17 288.03,407.50 289.32,409.27 290.60,407.94 291.88,408.38 293.17,407.94 294.45,411.48 295.74,410.15 297.02,411.92 298.31,413.24 299.60,412.80 300.88,413.69 302.16,411.48 303.45,414.13 304.73,414.13 306.02,415.89 307.30,413.24 308.59,415.01 309.88,414.57 311.16,415.45 312.45,414.57 313.73,416.33 315.01,416.33 316.30,418.10 317.58,417.66 318.87,418.98 320.15,417.22 321.44,417.22 322.73,418.54 324.01,416.77 325.29,415.89 326.58,417.66 327.86,382.59 329.15,365.11 330.43,363.76 331.72,367.36 333.01,371.40 334.29,374.09 335.57,376.78 336.86,380.36 338.14,383.49 339.43,385.27 340.71,387.95 342.00,389.29 343.29,390.18 344.57,390.63 345.85,395.08 347.14,394.63 348.42,397.74 349.71,398.63 350.99,401.74 352.28,400.41 353.57,403.07 354.85,404.40 356.13,403.51 357.42,403.51 358.70,407.50 359.99,407.50 361.27,404.40 362.56,363.31 363.85,361.96 365.13,366.01 366.41,367.36 367.70,369.60 368.98,372.30 370.27,377.67 371.55,380.36 372.84,381.25 374.12,382.59 375.41,385.27 376.70,385.72 377.98,388.84 379.26,391.96 380.55,391.07 381.83,394.19 383.12,396.41 384.40,396.41 385.69,399.96 386.98,400.85 388.26,402.18 389.54,403.95 390.83,403.51 392.11,403.51 393.40,405.73 394.68,407.05 395.97,407.94 397.26,407.05 398.54,409.27 399.82,409.71 401.11,411.04 402.39,411.04 403.68,410.59 404.96,409.27 406.25,409.71 407.54,412.80 408.82,411.48 410.10,412.80 411.39,413.24 412.67,414.13 413.96,413.69 415.24,416.77 416.53,415.89 417.82,415.01 419.10,415.45 420.38,416.33 421.67,416.77 422.95,416.77 424.24,378.57 425.52,366.46 426.81,368.26 428.10,371.85 429.38,374.09 430.66,376.78 431.95,379.91 433.23,382.59 434.52,385.27 435.80,387.51 437.09,389.29 438.38,389.73 439.66,392.41 440.95,392.85 442.23,395.52 443.51,396.41 444.80,398.63 446.08,399.52 447.37,400.85 448.65,399.96 449.94,403.07 451.23,403.51 452.51,404.84 453.79,405.28 455.08,407.50 456.36,407.94 457.65,409.27 458.93,409.27 460.22,408.82 461.51,410.59 462.79,410.59 464.07,411.48 465.36,411.92 466.64,410.15 467.93,411.92 469.21,412.80 470.50,413.24 471.79,415.45 473.07,414.57 474.35,414.57 475.64,415.45 476.92,416.77 478.21,418.10 479.49,415.45 480.78,414.57 482.07,413.24 483.35,413.69 484.63,412.80 485.92,411.92 487.20,411.04 488.49,407.94 489.77,364.66 491.06,361.06 492.35,361.51 493.63,364.66 494.91,366.01 496.20,367.81 497.48,370.05 498.77,371.85 500.05,373.64 501.34,374.54 502.62,376.78 503.91,379.02 505.20,379.02 506.48,381.70 507.76,384.38 509.05,384.38 510.33,383.04 511.62,384.83 512.90,387.51 514.19,387.51 515.48,389.73 516.76,389.29 518.04,390.63 519.33,389.73 520.61,391.07 521.90,390.63 523.18,392.85 524.47,392.41 525.76,393.30 527.04,392.41 528.32,395.08 529.61,392.85 530.89,392.85 532.18,395.97 533.46,396.41 534.75,395.97 536.04,396.41 537.32,395.52 538.60,395.52 539.89,395.52 541.17,395.97 542.46,394.63 543.74,396.85 545.03,395.97 546.32,396.41 547.60,398.63 548.88,397.74 550.17,398.63 551.45,399.08 552.74,400.41 554.02,397.30 555.31,399.52 556.60,378.57 557.88,350.68 559.16,352.03 560.45,354.74 561.73,358.35 563.02,361.51 564.30,364.21 565.59,367.36 566.88,366.01 568.16,370.05 569.45,371.40 570.73,370.95 572.01,373.64 573.30,377.67 574.58,377.67 575.87,379.02 577.15,380.81 578.44,382.59 579.73,382.15 581.01,383.49 582.29,384.38 583.58,387.95 584.86,386.61 586.15,387.95 587.43,387.51 588.72,389.29 590.01,391.96 591.29,389.29 592.57,391.52 593.86,389.29 595.14,391.07 596.43,391.96 597.71,392.85 599.00,393.74 600.29,395.52 601.57,395.52 602.85,395.08 604.14,393.74 605.42,394.19 606.71,395.97 607.99,396.85 609.28,396.85 610.57,398.19 611.85,396.85 613.13,397.74 614.42,391.07 615.70,351.58 616.99,348.41 618.27,352.48 619.56,351.13 620.85,341.16 622.13,333.43 623.41,324.77 624.70,315.62 625.98,306.45 627.27,296.77 628.55,293.54 629.84,286.14 631.12,284.29 632.41,280.12 633.70,272.68 634.98,262.43 636.26,253.54 637.55,241.34 638.83,230.03 640.12,220.57 641.40,207.74 642.69,197.74 643.98,187.69 645.26,177.13 646.54,168.95 647.83,158.81 649.11,151.06 650.40,144.75 651.68,137.94 652.97,130.14 654.26,135.02 655.54,133.07 656.82,132.58 658.11,131.60 659.39,127.70 660.68,125.74 661.96,119.87 663.25,117.91 664.54,116.44 665.82,113.99 667.10,115.95 668.39,115.95 669.67,117.42 670.96,115.46 672.24,112.03 673.53,111.04 674.82,111.53 676.10,111.53 677.38,113.50 678.67,113.50 679.95,112.03 681.24,108.10 682.52,107.60 683.81,105.64 685.10,107.60 686.38,112.03 687.66,116.44 688.95,118.89 690.23,122.32 691.52,123.30 692.80,123.30 694.09,122.81 695.38,120.85 696.66,120.85 697.95,121.83 699.23,122.32 700.51,125.26 701.80,124.28 703.08,123.30 704.37,121.83 705.65,118.89 706.94,115.95 708.23,115.46 709.51,113.01 710.79,111.53 712.08,109.08 713.36,109.08 714.65,105.64 715.93,105.14 717.22,106.13 718.51,104.16 719.79,103.18 721.07,105.64 722.36,102.19 723.64,101.70 724.93,101.70 726.21,103.67 727.50,100.22 728.79,102.19 730.07,104.16 731.35,103.67 732.64,102.68 733.92,105.14 735.21,103.67 736.49,101.20 737.78,103.18 739.07,103.18 740.35,106.13 741.63,106.62 742.92,104.16 744.20,106.13 745.49,105.64 746.77,109.08 748.06,112.52 749.35,113.01 750.63,117.91 751.91,119.87 753.20,118.40 754.48,118.40 755.77,115.95 757.05,118.89 758.34,116.93 759.62,115.95 760.91,116.44 762.20,113.99 763.48,113.01 764.76,113.01 766.05,113.01 767.33,116.93 768.62,116.44 769.90,115.95 771.19,120.36 772.48,122.32 773.76,122.81 775.04,121.34 776.33,117.91 777.61,116.44 778.90,114.48 780.18,112.52 781.47,112.52 782.76,114.97 784.04,113.99 785.32,117.91 786.61,119.38 787.89,117.42 789.18,116.44 790.46,112.03 791.75,112.03 793.04,111.53 794.32,111.04 795.60,113.01 796.89,113.01 798.17,115.46 799.46,117.42 800.74,117.42 802.03,116.44 803.32,118.40 804.60,125.74 805.88,137.45 807.17,146.21 808.45,159.29 809.74,162.68 811.02,171.36 812.31,178.10 813.60,181.46 814.88,189.61 816.16,193.43 817.45,196.78 818.73,201.08 820.02,203.94 821.30,211.07 822.59,216.77 823.87,219.14 825.16,228.14 826.45,227.66 827.73,237.10 829.01,247.92 830.30,257.29 831.58,267.09 832.87,277.80 834.15,284.76 835.44,291.70 836.73,299.08 838.01,305.07 839.29,311.96 840.58,319.29 841.86,324.32 843.15,329.33 844.43,333.89 845.72,338.44 847.01,344.79 848.29,350.22 849.57,352.03 850.86,356.55 852.14,360.61 853.43,363.76 854.71,367.81 856.00,368.71 857.29,373.19 858.57,375.44 859.85,377.67 861.14,379.02 862.42,382.15 863.71,384.38 864.99,387.51 866.28,389.29 867.57,378.12 868.85,347.06 870.13,348.41 871.42,352.48 872.70,357.00 873.99,361.51 875.27,363.76 876.56,367.81 877.85,370.95 879.13,374.54 880.41,375.44 881.70,379.46 882.98,379.46 884.27,382.59 885.55,384.38 886.84,387.06 888.12,388.40 889.41,390.63 890.70,392.85 891.98,394.19 893.26,395.52 894.55,397.74 895.83,398.63 897.12,400.41 898.40,402.18 899.69,403.95 900.98,403.51 902.26,404.40 903.54,404.84 904.83,406.17 906.11,407.50 907.40,408.38 908.68,407.94 909.97,409.27 911.26,409.71 912.54,410.59 913.82,412.80 915.11,411.92 916.39,411.92 917.68,412.36 918.96,396.85 920.25,365.56 921.54,365.56 922.82,367.81 924.10,371.40 925.39,375.44 926.67,374.54 927.96,379.91 929.24,382.15 930.53,385.27 931.82,387.06 933.10,387.51 934.38,391.52 935.67,392.85 936.95,394.19 938.24,395.97 939.52,396.85 940.81,397.30 942.10,399.08 943.38,399.52 944.66,403.51 945.95,405.28 947.23,404.40 948.52,405.28 949.80,405.28 951.09,407.50 952.38,407.50 953.66,407.05 954.95,407.05 956.23,411.04 957.51,411.04 958.80,410.59 960.08,411.48 961.37,411.48 962.65,412.36 963.94,412.36 965.23,413.69 966.51,412.36 967.79,414.57 969.08,414.57 970.36,414.13 971.65,415.45 972.93,414.13 974.22,415.01 975.51,413.69 976.79,415.89 978.07,416.77 979.36,416.77 980.64,418.10 981.93,414.13 983.21,415.89 984.50,417.22 985.79,415.89 987.07,416.77 988.35,417.22 989.64,416.33 990.92,415.45 992.21,416.77 993.49,418.10 994.78,417.66 996.07,417.22 997.35,417.22 998.63,419.42 999.92,419.42 1001.20,420.74 1002.49,417.66 1003.77,417.66 1005.06,417.66 1006.35,418.98 1007.63,419.42 1008.91,418.54 1010.20,417.66 1011.48,417.66 1012.77,418.98 1014.05,418.98 1015.34,419.86 1016.62,419.42 1017.91,419.86 1019.20,419.42 1020.48,393.30 1021.76,370.05 1023.05,369.60 1024.33,371.85 1025.62,374.54 1026.90,376.78 1028.19,379.46 1029.48,382.59 1030.76,384.83 1032.04,385.72 1033.33,389.29 1034.61,391.07 1035.90,390.18 1037.18,395.08 1038.47,397.30 1039.76,397.74 1041.04,399.96 1042.32,399.08 1043.61,400.85 1044.89,400.85 1046.18,402.62 1047.46,403.07 1048.75,405.73 1050.04,403.51 1051.32,405.73 1052.60,408.38 1053.89,407.94 1055.17,409.27 1056.46,411.04 1057.74,410.59 1059.03,408.82 1060.32,410.59 1061.60,411.04 1062.88,411.48 1064.17,412.80 1065.45,412.80 1066.74,413.24 1068.02,415.01 1069.31,413.69 1070.60,415.01 1071.88,415.01 1073.16,414.57 1074.45,415.01 1075.73,416.33 1077.02,415.01 1078.30,415.45 1079.59,417.22 1080.88,416.77 1082.16,417.66 1083.45,417.22 1084.73,416.77 1086.01,417.66 1087.30,419.42 1088.58,420.30 1089.87,418.54 1091.15,418.10 1092.44,419.42 1093.73,419.42 1095.01,419.42 1096.29,419.86 1097.58,419.42 1098.86,419.42 1100.15,418.98 1101.43,419.86 1102.72,418.10 1104.01,418.98 1105.29,419.42 1106.57,422.50 1107.86,419.42 1109.14,419.86 1110.43,421.18 1111.71,421.62 1113.00,419.86 1114.29,419.42 1115.57,418.54 1116.85,417.66 1118.14,419.42 1119.42,420.74 1120.71,395.08 1121.99,370.95 1123.28,368.26 1124.57,374.09 1125.85,374.09 1127.13,376.78 1128.42,381.70 1129.70,383.93 1130.99,384.83 1132.27,387.95 1133.56,388.84 1134.85,393.30 1136.13,394.19 1137.41,394.19 1138.70,396.85 1139.98,399.08 1141.27,398.19 1142.55,400.85 1143.84,403.07 1145.12,403.51 1146.41,403.95 1147.70,406.17 1148.98,407.94 1150.26,406.17 1151.55,407.50 1152.83,408.38 1154.12,407.94 1155.40,409.27 1156.69,410.59 1157.98,412.80 1159.26,412.36 1160.54,413.24 1161.83,412.80 1163.11,413.24 1164.40,413.69 1165.68,414.13 1166.97,415.01 1168.26,416.33 1169.54,416.77 1170.82,415.89 1172.11,418.10 1173.39,416.77 1174.68,415.89 1175.96,415.89 1177.25,416.77 1178.54,414.13 1179.82,418.54 1181.10,418.10 1182.39,418.10 1183.67,417.22 1184.96,416.77 1186.24,418.10 1187.53,419.42 1188.82,417.22 1190.10,418.10 1191.38,418.54 1192.67,419.42 1193.95,419.42 1195.24,419.86 1196.52,420.30 1197.81,418.10 1199.10,419.42 1200.38,418.98 1201.66,418.98 1202.95,418.54 1204.23,419.86 1205.52,420.74 1206.80,419.42 1208.09,420.30 1209.38,419.86 1210.66,419.86 1211.95,421.62 1213.23,418.98 1214.51,419.42 1215.80,419.86 1217.08,420.30 1218.37,421.62 1219.65,419.42 1220.94,421.18 1222.23,376.33 1223.51,368.26 1224.79,370.95 1226.08,373.64 1227.36,377.23 1228.65,379.02 1229.93,380.81 1231.22,383.93 1232.51,387.06 1233.79,387.51 1235.07,389.29 1236.36,392.85 1237.64,395.08 1238.93,397.30 1240.21,397.30 1241.50,399.08 1242.79,402.18 1244.07,401.74 1245.35,402.18 1246.64,402.62 1247.92,405.28 1249.21,404.84 1250.49,407.50 1251.78,407.94 1253.07,409.27 1254.35,409.27 1255.63,409.27 1256.92,410.15 1258.20,409.27 1259.49,410.59 1260.77,411.04 1262.06,413.24 1263.35,412.80 1264.63,413.24 1265.91,412.36 1267.20,415.45 1268.48,414.57 1269.77,416.33 1271.05,415.89 1272.34,414.57 1273.62,416.33 1274.91,417.22 1276.20,417.66 1277.48,417.66 1278.76,416.77 1280.05,418.98 1281.33,416.77 1282.62,418.54 1283.90,418.98 1285.19,418.10 1286.48,418.10 1287.76,417.66 1289.04,418.10 1290.33,418.54 1291.61,419.42 1292.90,421.18 1294.18,420.74 1295.47,420.30 1296.76,419.42 1298.04,417.66 1299.32,421.18 1300.61,419.86 1301.89,418.98 1303.18,419.86 1304.46,420.74 1305.75,419.42 1307.04,419.86 1308.32,418.98 1309.60,419.86 1310.89,421.62 1312.17,419.86 1313.46,419.42 1314.74,419.42 1316.03,419.42 1317.32,418.98 1318.60,420.30 1319.88,419.86 1321.17,419.42 1322.45,418.54 1323.74,372.30 1325.02,370.50 1326.31,370.05 1327.60,374.09 1328.88,377.23 1330.16,378.57 1331.45,382.15 1332.73,385.27 1334.02,387.95 1335.30,389.73 1336.59,391.52 1337.88,393.30 1339.16,394.63 1340.45,396.85 1341.73,398.19 1343.01,400.85 1344.30,401.74 1345.58,402.18 1346.87,403.95 1348.15,403.95 1349.44,405.73 1350.73,403.95 1352.01,406.17 1353.29,407.50 1354.58,408.82 1355.86,407.94 1357.15,409.27 1358.43,410.59 1359.72,411.48 1361.01,411.48 1362.29,413.69 1363.57,413.24 1364.86,413.24 1366.14,412.80 1367.43,414.13 1368.71,414.57 1370.00,415.45"/>
<polyline fill="none" stroke="#9467bd" stroke-width="1.0" points="85.00,365.11 86.28,367.81 87.57,370.95 88.85,374.54 90.14,376.33 91.42,379.02 92.71,383.49 93.99,383.93 95.28,388.40 96.57,389.73 97.85,392.41 99.14,393.74 100.42,396.41 101.71,396.85 102.99,400.41 104.28,399.08 105.56,401.74 106.84,401.74 108.13,403.51 109.41,405.73 110.70,404.84 111.98,405.28 113.27,407.50 114.55,406.61 115.84,409.27 117.12,410.15 118.41,409.71 119.70,409.27 120.98,372.30 122.27,361.06 123.55,362.41 124.84,367.81 126.12,370.95 127.41,373.19 128.69,375.88 129.97,379.91 131.26,381.25 132.54,383.04 133.83,387.95 135.11,389.73 136.40,390.63 137.68,393.30 138.97,394.19 140.26,397.30 141.54,398.19 142.83,399.52 144.11,399.96 145.40,399.96 146.68,401.29 147.97,402.18 149.25,403.51 150.53,405.28 151.82,404.84 153.10,405.28 154.39,407.05 155.67,407.94 156.96,408.38 158.24,410.15 159.53,411.04 160.82,410.59 162.10,411.92 163.39,413.24 164.67,414.13 165.96,411.92 167.24,411.92 168.53,415.45 169.81,415.01 171.09,414.57 172.38,415.45 173.66,417.22 174.95,415.01 176.23,415.01 177.52,417.22 178.80,414.57 180.09,416.33 181.38,416.33 182.66,418.10 183.95,417.66 185.23,416.77 186.52,415.89 187.80,416.77 189.09,418.98 190.37,417.66 191.66,379.02 192.94,364.66 194.22,366.01 195.51,368.71 196.79,373.64 198.08,378.12 199.36,378.57 200.65,382.59 201.93,383.93 203.22,386.61 204.51,389.29 205.79,390.63 207.08,391.52 208.36,393.74 209.65,395.52 210.93,397.74 212.22,398.19 213.50,399.52 214.78,399.96 216.07,399.96 217.35,403.07 218.64,405.73 219.92,405.73 221.21,407.05 222.49,407.50 223.78,407.94 225.07,407.94 226.35,407.94 227.64,409.27 228.92,411.04 230.21,411.04 231.49,410.59 232.78,412.36 234.06,413.69 235.34,412.36 236.63,413.24 237.91,415.45 239.20,414.13 240.48,413.24 241.77,414.57 243.05,414.57 244.34,416.33 245.62,414.57 246.91,415.01 248.20,415.01 249.48,418.10 250.77,416.77 252.05,417.66 253.34,416.33 254.62,415.89 255.91,417.66 257.19,417.22 258.47,417.66 259.76,416.33 261.04,370.05 262.33,362.86 263.61,365.56 264.90,367.36 266.18,372.30 267.47,375.44 268.76,379.02 270.04,381.70 271.33,383.49 272.61,386.17 273.90,389.73 275.18,390.18 276.47,392.85 277.75,393.30 279.03,393.74 280.32,395.97 281.60,396.85 282.89,399.52 284.17,399.96 285.46,401.74 286.74,403.95 288.03,404.84 289.32,406.61 290.60,407.05 291.89,406.61 293.17,407.50 294.46,407.50 295.74,409.27 297.03,408.82 298.31,409.71 299.59,411.48 300.88,412.36 302.16,411.04 303.45,411.92 304.73,415.01 306.02,414.13 307.30,412.80 308.59,414.13 309.88,414.13 311.16,417.22 312.45,414.13 313.73,415.01 315.02,415.01 316.30,414.57 317.59,415.45 318.87,416.33 320.16,415.89 321.44,418.98 322.72,418.10 324.01,418.10 325.29,416.33 326.58,418.10 327.86,414.57 329.15,367.81 330.43,362.86 331.72,366.46 333.01,368.71 334.29,372.75 335.58,375.88 336.86,377.67 338.15,382.59 339.43,383.93 340.72,384.38 342.00,387.51 343.28,389.73 344.57,391.07 345.85,393.30 347.14,394.63 348.42,396.85 349.71,397.74 350.99,398.19 352.28,399.52 353.57,401.29 354.85,403.51 356.14,403.51 357.42,405.73 358.71,405.28 359.99,407.50 361.28,407.94 362.56,408.82 363.84,407.05 365.13,407.94 366.41,407.94 367.70,409.27 368.98,407.94 370.27,408.82 371.55,411.04 372.84,411.92 374.12,414.57 375.41,414.57 376.70,414.57 377.98,414.13 379.27,413.69 380.55,415.01 381.84,414.57 383.12,415.45 384.41,414.57 385.69,415.01 386.97,415.01 388.26,416.33 389.54,416.77 390.83,415.89 392.11,417.66 393.40,416.77 394.68,416.33 395.97,367.81 397.26,363.31 398.54,365.11 399.83,367.36 401.11,370.50 402.40,374.99 403.68,377.23 404.97,379.46 406.25,382.15 407.53,385.27 408.82,387.51 410.10,389.73 411.39,391.07 412.67,391.96 413.96,394.63 415.24,395.97 416.53,397.30 417.82,399.08 419.10,399.96 420.39,401.29 421.67,401.29 422.96,403.51 424.24,404.40 425.53,405.28 426.81,407.50 428.09,409.27 429.38,409.71 430.66,410.15 431.95,408.82 433.23,411.04 434.52,411.48 435.80,412.36 437.09,411.92 438.38,412.36 439.66,411.92 440.95,411.48 442.23,411.92 443.52,413.69 444.80,413.24 446.09,413.69 447.37,414.57 448.66,415.01 449.94,415.89 451.22,417.22 452.51,415.45 453.79,415.45 455.08,416.77 456.36,416.77 457.65,414.13 458.93,366.46 460.22,362.86 461.51,365.11 462.79,369.60 464.08,372.75 465.36,375.44 466.65,375.88 467.93,379.46 469.22,382.15 470.50,385.27 471.78,387.51 473.07,389.73 474.35,391.96 475.64,393.30 476.92,394.19 478.21,395.08 479.49,396.41 480.78,397.74 482.07,400.85 483.35,402.62 484.64,403.95 485.92,405.73 487.21,404.84 488.49,407.05 489.78,406.17 491.06,408.38 492.34,408.38 493.63,408.38 494.91,408.82 496.20,409.27 497.48,410.59 498.77,412.36 500.05,412.36 501.34,412.36 502.62,412.80 503.91,413.69 505.20,413.24 506.48,414.57 507.77,414.57 509.05,414.13 510.34,415.45 511.62,415.01 512.91,414.57 514.19,415.89 515.47,415.01 516.76,415.01 518.04,417.66 519.33,415.89 520.61,416.33 521.90,415.01 523.18,416.77 524.47,418.10 525.76,417.66 527.04,417.22 528.33,391.52 529.61,363.31 530.90,363.76 532.18,367.81 533.47,372.75 534.75,373.19 536.03,376.33 537.32,379.02 538.60,381.25 539.89,383.49 541.17,387.06 542.46,387.95 543.74,390.18 545.03,394.19 546.32,392.85 547.60,395.97 548.89,395.08 550.17,395.08 551.46,395.08 552.74,395.52 554.03,394.63 555.31,395.08 556.59,396.85 557.88,396.41 559.16,395.52 560.45,396.85 561.73,397.74 563.02,398.63 564.30,398.63 565.59,398.63 566.88,397.30 568.16,397.30 569.45,398.63 570.73,397.30 572.02,398.19 573.30,398.19 574.59,399.08 575.87,398.19 577.16,397.30 578.44,396.85 579.72,398.63 581.01,399.08 582.29,398.63 583.58,398.63 584.86,400.85 586.15,398.63 587.43,398.19 588.72,398.63 590.01,399.52 591.29,400.85 592.58,399.96 593.86,360.61 595.15,348.87 596.43,350.22 597.72,352.48 599.00,355.20 600.28,359.26 601.57,361.51 602.85,363.31 604.14,366.01 605.42,367.36 606.71,370.05 607.99,371.85 609.28,373.19 610.57,373.19 611.85,375.88 613.14,378.12 614.42,380.81 615.71,380.36 616.99,382.59 618.28,383.49 619.56,383.49 620.84,385.72 622.13,386.17 623.41,387.95 624.70,387.51 625.98,389.73 627.27,389.73 628.55,390.63 629.84,391.52 631.12,351.13 632.41,344.34 633.70,348.41 634.98,351.13 636.27,353.39 637.55,357.90 638.84,358.80 640.12,364.21 641.41,366.46 642.69,367.81 643.97,371.85 645.26,370.95 646.54,373.19 647.83,374.99 649.11,374.99 650.40,376.78 651.68,377.67 652.97,381.25 654.26,382.15 655.54,383.49 656.83,384.38 658.11,386.61 659.40,387.51 660.68,385.72 661.97,387.06 663.25,388.40 664.53,388.84 665.82,389.73 667.10,391.07 668.39,391.96 669.67,391.07 670.96,393.30 672.24,391.07 673.53,391.96 674.82,393.30 676.10,393.74 677.39,394.19 678.67,395.52 679.96,395.97 681.24,396.85 682.53,395.97 683.81,396.85 685.09,395.97 686.38,385.72 687.66,373.19 688.95,357.45 690.23,317.91 691.52,294.47 692.80,286.14 694.09,280.58 695.38,271.29 696.66,263.36 697.95,254.01 699.23,242.28 700.52,230.50 701.80,221.04 703.09,208.22 704.37,199.64 705.66,189.13 706.94,179.54 708.22,169.91 709.51,162.68 710.79,155.42 712.08,148.64 713.36,140.38 714.65,132.58 715.93,125.74 717.22,120.85 718.51,112.52 719.79,106.62 721.08,100.22 722.36,96.77 723.65,87.87 724.93,82.43 726.22,78.46 727.50,72.50 728.78,87.38 730.07,89.85 731.35,96.27 732.64,99.23 733.92,96.77 735.21,96.27 736.49,96.77 737.78,93.81 739.07,94.79 740.35,89.36 741.64,91.83 742.92,89.36 744.21,90.35 745.49,90.84 746.78,90.35 748.06,94.79 749.34,96.77 750.63,100.22 751.91,104.16 753.20,107.60 754.48,113.01 755.77,112.03 757.05,113.99 758.34,115.95 759.62,114.97 760.91,113.99 762.20,111.04 763.48,113.50 764.77,114.97 766.05,113.99 767.34,114.48 768.62,110.06 769.91,107.11 771.19,108.10 772.47,105.64 773.76,105.14 775.04,105.14 776.33,104.16 777.61,101.70 778.90,99.73 780.18,98.74 781.47,97.26 782.76,98.25 784.04,97.75 785.33,98.25 786.61,95.78 787.90,97.75 789.18,96.77 790.47,94.79 791.75,97.26 793.03,96.27 794.32,94.30 795.60,94.30 796.89,95.78 798.17,95.78 799.46,97.26 800.74,96.77 802.03,96.77 803.32,96.27 804.60,98.25 805.89,98.25 807.17,98.74 808.46,99.73 809.74,100.22 811.03,100.22 812.31,106.13 813.59,107.11 814.88,111.53 816.16,112.52 817.45,114.97 818.73,117.91 820.02,115.46 821.30,115.46 822.59,115.46 823.87,114.48 825.16,115.46 826.45,115.46 827.73,114.97 829.02,113.99 830.30,113.01 831.59,112.52 832.87,111.53 834.16,112.03 835.44,114.48 836.72,116.44 838.01,113.99 839.29,119.38 840.58,121.83 841.86,116.93 843.15,116.93 844.43,113.99 845.72,111.53 847.01,110.55 848.29,112.52 849.58,113.99 850.86,113.99 852.15,118.89 853.43,117.42 854.72,115.95 856.00,116.44 857.28,110.55 858.57,109.08 859.85,109.57 861.14,110.06 862.42,110.55 863.71,112.03 864.99,113.01 866.28,114.48 867.57,115.46 868.85,116.44 870.14,117.91 871.42,127.70 872.71,141.83 873.99,150.09 875.28,159.78 876.56,167.50 877.84,171.36 879.13,182.90 880.41,185.77 881.70,190.09 882.98,197.74 884.27,198.21 885.55,204.89 886.84,209.17 888.12,211.55 889.41,220.57 890.70,220.57 891.98,230.50 893.27,242.28 894.55,254.01 895.84,262.90 897.12,271.75 898.41,280.12 899.69,288.46 900.97,295.85 902.26,304.61 903.54,310.12 904.83,319.29 906.11,323.86 907.40,328.42 908.68,332.52 909.97,337.98 911.26,342.52 912.54,347.96 913.83,351.58 915.11,359.26 916.40,361.06 917.68,364.21 918.97,365.56 920.25,370.50 921.53,374.54 922.82,376.33 924.10,380.81 925.39,381.25 926.67,384.38 927.96,386.61 929.24,386.17 930.53,391.52 931.82,391.96 933.10,392.85 934.39,395.52 935.67,391.07 936.96,350.68 938.24,349.77 939.53,354.74 940.81,357.90 942.09,361.96 943.38,365.11 944.66,369.16 945.95,372.75 947.23,374.99 948.52,376.78 949.80,380.36 951.09,382.59 952.38,383.93 953.66,387.95 954.95,388.40 956.23,389.29 957.52,393.30 958.80,394.63 960.09,396.41 961.37,396.41 962.66,398.19 963.94,398.63 965.22,401.29 966.51,403.07 967.79,403.51 969.08,405.28 970.36,406.61 971.65,406.61 972.93,407.94 974.22,405.28 975.51,409.71 976.79,409.27 978.08,410.15 979.36,410.15 980.65,410.59 981.93,410.59 983.22,411.48 984.50,412.36 985.78,411.92 987.07,413.24 988.35,413.69 989.64,413.69 990.92,413.24 992.21,413.24 993.49,415.45 994.78,415.01 996.07,415.89 997.35,415.45 998.64,416.33 999.92,414.13 1001.21,416.33 1002.49,415.89 1003.78,417.66 1005.06,418.10 1006.34,417.22 1007.63,418.10 1008.91,418.54 1010.20,417.66 1011.48,417.66 1012.77,416.77 1014.05,417.22 1015.34,418.98 1016.62,417.22 1017.91,417.66 1019.20,418.10 1020.48,419.86 1021.77,417.66 1023.05,417.22 1024.34,418.10 1025.62,417.66 1026.91,418.10 1028.19,418.10 1029.47,416.33 1030.76,418.10 1032.04,418.54 1033.33,417.66 1034.61,419.42 1035.90,419.42 1037.18,418.54 1038.47,417.66 1039.76,385.27 1041.04,365.56 1042.33,365.56 1043.61,368.26 1044.90,371.85 1046.18,374.54 1047.47,377.67 1048.75,380.36 1050.03,381.70 1051.32,384.38 1052.60,387.51 1053.89,389.29 1055.17,389.73 1056.46,395.08 1057.74,393.74 1059.03,396.85 1060.32,396.41 1061.60,399.52 1062.89,398.63 1064.17,400.85 1065.46,400.85 1066.74,403.07 1068.03,403.51 1069.31,405.73 1070.59,407.50 1071.88,408.38 1073.16,409.71 1074.45,408.38 1075.73,409.27 1077.02,411.04 1078.30,410.59 1079.59,411.48 1080.88,411.04 1082.16,412.80 1083.45,411.92 1084.73,413.69 1086.02,413.69 1087.30,414.57 1088.59,413.69 1089.87,415.45 1091.16,416.77 1092.44,416.33 1093.72,417.22 1095.01,415.45 1096.29,415.01 1097.58,416.77 1098.86,416.33 1100.15,416.77 1101.43,417.66 1102.72,417.66 1104.01,416.33 1105.29,416.33 1106.58,416.33 1107.86,414.13 1109.15,417.66 1110.43,418.54 1111.72,416.77 1113.00,415.89 1114.28,417.22 1115.57,418.10 1116.85,418.54 1118.14,418.54 1119.42,418.10 1120.71,417.66 1121.99,418.98 1123.28,416.77 1124.57,418.98 1125.85,417.66 1127.14,418.54 1128.42,419.86 1129.71,381.25 1130.99,366.01 1132.28,366.91 1133.56,368.26 1134.84,373.64 1136.13,375.88 1137.41,380.81 1138.70,383.04 1139.98,384.38 1141.27,386.17 1142.55,389.29 1143.84,389.29 1145.12,393.30 1146.41,395.08 1147.70,396.41 1148.98,396.41 1150.27,398.19 1151.55,399.96 1152.84,402.62 1154.12,402.62 1155.41,404.40 1156.69,406.17 1157.97,407.05 1159.26,405.28 1160.54,407.94 1161.83,409.27 1163.11,409.27 1164.40,409.27 1165.68,410.15 1166.97,411.04 1168.26,410.59 1169.54,411.48 1170.83,412.80 1172.11,414.13 1173.40,414.13 1174.68,415.45 1175.97,414.57 1177.25,415.45 1178.53,416.33 1179.82,414.13 1181.10,414.13 1182.39,417.22 1183.67,414.57 1184.96,416.77 1186.24,416.77 1187.53,417.22 1188.82,417.66 1190.10,417.22 1191.39,417.66 1192.67,418.10 1193.96,417.66 1195.24,420.30 1196.53,419.42 1197.81,420.74 1199.09,418.10 1200.38,419.42 1201.66,418.98 1202.95,419.42 1204.23,418.54 1205.52,419.86 1206.80,419.42 1208.09,420.30 1209.38,421.62 1210.66,418.54 1211.95,420.30 1213.23,419.86 1214.52,418.98 1215.80,419.86 1217.09,421.62 1218.37,420.74 1219.66,421.18 1220.94,420.74 1222.22,420.30 1223.51,419.86 1224.79,419.86 1226.08,421.18 1227.36,421.62 1228.65,418.10 1229.93,419.86 1231.22,420.30 1232.51,422.06 1233.79,419.86 1235.08,419.86 1236.36,419.86 1237.65,383.04 1238.93,366.46 1240.22,367.81 1241.50,370.50 1242.78,374.54 1244.07,376.78 1245.35,380.81 1246.64,382.15 1247.92,384.38 1249.21,387.06 1250.49,387.95 1251.78,391.52 1253.07,392.85 1254.35,394.63 1255.64,396.41 1256.92,396.85 1258.21,398.19 1259.49,399.52 1260.78,402.18 1262.06,401.74 1263.34,403.95 1264.63,403.95 1265.91,407.50 1267.20,406.61 1268.48,407.05 1269.77,408.82 1271.05,410.15 1272.34,409.71 1273.62,411.92 1274.91,411.04 1276.20,412.80 1277.48,412.80 1278.77,412.80 1280.05,412.80 1281.34,414.13 1282.62,414.13 1283.91,414.57 1285.19,415.01 1286.47,415.01 1287.76,416.33 1289.04,416.33 1290.33,415.89 1291.61,415.45 1292.90,417.22 1294.18,416.33 1295.47,417.22 1296.76,415.01 1298.04,417.66 1299.33,418.10 1300.61,416.77 1301.90,418.10 1303.18,418.10 1304.47,418.54 1305.75,417.66 1307.03,420.30 1308.32,418.10 1309.60,419.86 1310.89,416.77 1312.17,418.54 1313.46,418.98 1314.74,418.98 1316.03,419.86 1317.32,419.86 1318.60,419.86 1319.89,420.74 1321.17,419.86 1322.46,420.30 1323.74,420.74 1325.03,420.74 1326.31,420.30 1327.59,419.86 1328.88,419.42 1330.16,419.42 1331.45,420.30 1332.73,420.30 1334.02,419.42 1335.30,421.62 1336.59,372.75 1337.88,366.01 1339.16,368.71 1340.45,370.95 1341.73,373.64 1343.02,376.33 1344.30,380.36 1345.59,383.93 1346.87,388.40 1348.16,388.40 1349.44,389.73 1350.72,389.73 1352.01,393.74 1353.29,394.63 1354.58,395.52 1355.86,399.52 1357.15,398.63 1358.43,400.41 1359.72,402.18 1361.01,403.95 1362.29,403.95 1363.58,406.61 1364.86,406.17 1366.15,407.05 1367.43,407.94 1368.72,409.27 1370.00,411.04"/>
<polyline fill="none" stroke="#8c564b" stroke-width="1.0" points="85.00,414.13 86.28,413.69 87.57,412.36 88.85,414.57 90.14,413.69 91.42,413.24 92.71,413.69 93.99,414.13 95.28,395.97 96.57,381.70 97.85,379.91 99.14,382.59 100.42,384.83 101.70,386.17 102.99,387.06 104.27,387.95 105.56,388.84 106.84,392.41 108.13,392.85 109.41,394.19 110.70,394.19 111.98,396.85 113.27,396.85 114.55,396.85 115.84,399.08 117.12,399.52 118.41,401.74 119.70,400.41 120.98,402.18 122.26,402.18 123.55,402.18 124.83,403.95 126.12,404.40 127.40,403.51 128.69,401.74 129.97,381.25 131.26,377.23 132.54,376.78 133.83,380.81 135.11,382.15 136.40,384.38 137.68,384.83 138.97,388.40 140.26,387.95 141.54,388.40 142.82,389.73 144.11,392.85 145.39,393.30 146.68,392.85 147.96,395.52 149.25,396.85 150.53,396.85 151.82,398.63 153.10,399.08 154.39,400.41 155.67,401.29 156.96,401.74 158.24,400.85 159.53,402.18 160.82,403.07 162.10,402.18 163.39,405.73 164.67,405.73 165.95,407.50 167.24,406.61 168.52,409.27 169.81,407.50 171.09,407.94 172.38,407.94 173.66,408.82 174.95,407.94 176.23,408.38 177.52,409.71 178.80,409.27 180.09,410.59 181.38,410.15 182.66,410.59 183.95,411.04 185.23,412.36 186.51,413.69 187.80,412.80 189.08,413.69 190.37,406.61 191.65,381.70 192.94,381.70 194.22,381.25 195.51,383.49 196.79,386.17 198.08,386.61 199.36,388.40 200.65,390.18 201.93,392.41 203.22,393.30 204.51,393.74 205.79,394.19 207.07,395.97 208.36,395.97 209.64,396.41 210.93,397.74 212.21,399.52 213.50,400.41 214.78,400.41 216.07,401.29 217.35,403.07 218.64,403.07 219.92,404.40 221.21,404.84 222.49,386.17 223.78,375.44 225.07,377.67 226.35,379.02 227.64,380.81 228.92,380.36 230.20,382.15 231.49,383.93 232.77,386.17 234.06,387.95 235.34,389.73 236.63,391.52 237.91,392.85 239.20,395.08 240.48,394.63 241.77,395.52 243.05,394.63 244.34,396.41 245.62,397.74 246.91,399.52 248.20,399.96 249.48,400.41 250.76,402.62 252.05,403.07 253.33,403.95 254.62,403.95 255.90,405.28 257.19,404.40 258.47,405.73 259.76,404.84 261.04,406.17 262.33,405.73 263.61,407.05 264.90,409.27 266.18,407.50 267.47,408.82 268.76,407.94 270.04,407.94 271.32,411.48 272.61,409.71 273.89,411.48 275.18,412.80 276.46,412.36 277.75,411.04 279.03,413.24 280.32,412.36 281.60,412.36 282.89,412.36 284.17,413.69 285.46,413.24 286.74,413.69 288.03,385.27 289.32,380.36 290.60,382.59 291.89,385.72 293.17,387.06 294.45,387.51 295.74,387.51 297.02,389.29 298.31,391.07 299.59,392.85 300.88,394.63 302.16,394.63 303.45,395.97 304.73,397.30 306.02,399.08 307.30,396.85 308.59,398.19 309.88,400.41 311.16,399.52 312.45,401.29 313.73,402.18 315.01,402.18 316.30,402.62 317.58,402.18 318.87,379.02 320.15,377.67 321.44,378.12 322.72,381.70 324.01,382.15 325.29,384.83 326.58,385.72 327.86,387.06 329.15,386.61 330.43,389.73 331.72,390.18 333.01,391.52 334.29,392.85 335.57,395.08 336.86,394.63 338.14,396.85 339.43,398.19 340.71,396.41 342.00,399.96 343.28,402.18 344.57,403.51 345.85,401.74 347.14,403.07 348.42,404.40 349.71,403.95 350.99,404.84 352.28,405.28 353.57,405.28 354.85,407.05 356.14,406.61 357.42,406.61 358.70,407.05 359.99,407.50 361.27,408.38 362.56,408.82 363.84,408.82 365.13,410.15 366.41,412.80 367.70,411.48 368.98,410.59 370.27,410.59 371.55,411.48 372.84,414.13 374.12,412.80 375.41,411.92 376.70,412.80 377.98,412.80 379.26,412.80 380.55,413.69 381.83,414.13 383.12,415.01 384.40,413.24 385.69,413.69 386.97,383.93 388.26,380.36 389.54,381.70 390.83,383.04 392.11,384.38 393.40,387.95 394.68,389.29 395.97,389.29 397.26,391.96 398.54,392.41 399.82,393.74 401.11,395.08 402.39,397.30 403.68,397.74 404.96,396.85 406.25,398.63 407.53,399.08 408.82,400.41 410.10,401.29 411.39,402.18 412.67,403.95 413.96,401.74 415.24,403.51 416.53,403.95 417.82,403.95 419.10,401.74 420.39,390.18 421.67,374.99 422.95,374.09 424.24,375.44 425.52,376.78 426.81,377.23 428.09,376.78 429.38,379.02 430.66,379.46 431.95,378.57 433.23,380.36 434.52,382.59 435.80,384.83 437.09,382.15 438.38,383.49 439.66,383.93 440.95,384.83 442.23,385.72 443.51,385.72 444.80,387.51 446.08,386.61 447.37,388.84 448.65,388.40 449.94,389.29 451.22,388.40 452.51,389.29 453.79,390.18 455.08,391.52 456.36,390.63 457.65,391.52 458.93,391.07 460.22,392.41 461.51,391.96 462.79,393.30 464.07,393.74 465.36,391.96 466.64,394.19 467.93,392.41 469.21,394.19 470.50,393.30 471.78,394.63 473.07,394.63 474.35,395.52 475.64,395.52 476.92,396.41 478.21,394.63 479.49,395.08 480.78,395.52 482.07,390.63 483.35,366.91 484.64,366.46 485.92,368.26 487.20,369.60 488.49,371.40 489.77,371.85 491.06,372.30 492.34,374.09 493.63,376.78 494.91,375.88 496.20,377.23 497.48,376.78 498.77,379.91 500.05,379.02 501.34,381.25 502.62,381.70 503.91,384.83 505.20,383.49 506.48,383.49 507.76,383.04 509.05,383.49 510.33,368.71 511.62,361.96 512.90,362.41 514.19,364.21 515.47,366.46 516.76,365.56 518.04,366.91 519.33,370.05 520.61,369.16 521.90,371.40 523.18,374.09 524.47,374.54 525.76,377.23 527.04,376.78 528.32,377.67 529.61,379.46 530.89,379.02 532.18,380.81 533.46,380.81 534.75,382.59 536.03,382.15 537.32,382.59 538.60,386.17 539.89,384.38 541.17,384.83 542.46,386.61 543.74,385.72 545.03,386.17 546.32,388.84 547.60,387.51 548.89,388.84 550.17,387.95 551.45,389.73 552.74,389.73 554.02,389.73 555.31,389.29 556.59,382.59 557.88,375.44 559.16,368.26 560.45,357.00 561.73,333.43 563.02,324.77 564.30,315.17 565.59,307.36 566.88,300.46 568.16,291.23 569.45,284.76 570.73,275.47 572.01,265.70 573.30,256.82 574.58,248.39 575.87,239.46 577.15,230.97 578.44,226.72 579.72,224.35 581.01,223.41 582.29,220.57 583.58,214.87 584.86,211.55 586.15,207.27 587.43,202.98 588.72,197.26 590.01,192.96 591.29,189.61 592.57,184.82 593.86,184.34 595.14,195.82 596.43,209.17 597.71,204.89 599.00,199.64 600.28,195.82 601.57,192.96 602.85,190.09 604.14,187.69 605.42,183.86 606.71,182.42 607.99,180.50 609.28,176.65 610.57,174.25 611.85,170.40 613.14,167.99 614.42,164.61 615.70,161.23 616.99,157.84 618.27,156.87 619.56,158.81 620.84,159.29 622.13,158.33 623.41,159.29 624.70,156.39 625.98,155.42 627.27,155.42 628.55,156.39 629.84,153.00 631.12,153.00 632.41,154.94 633.70,154.45 634.98,153.48 636.26,152.03 637.55,153.48 638.83,153.00 640.12,150.58 641.40,149.61 642.69,147.18 643.97,144.75 645.26,141.83 646.54,139.40 647.83,138.43 649.11,136.97 650.40,137.94 651.68,135.51 652.97,134.04 654.26,131.60 655.54,131.12 656.82,129.65 658.11,128.19 659.39,124.28 660.68,121.34 661.96,118.40 663.25,116.93 664.53,117.91 665.82,113.01 667.10,111.04 668.39,101.70 669.67,94.30 670.96,94.30 672.24,94.30 673.53,91.83 674.82,92.82 676.10,92.32 677.39,91.83 678.67,89.85 679.95,89.36 681.24,90.84 682.52,90.84 683.81,92.82 685.09,93.81 686.38,94.30 687.66,95.78 688.95,92.82 690.23,94.30 691.52,92.82 692.80,93.81 694.09,92.82 695.38,93.81 696.66,94.30 697.95,92.82 699.23,94.79 700.51,92.32 701.80,94.79 703.08,92.32 704.37,90.35 705.65,92.32 706.94,92.82 708.22,92.32 709.51,95.78 710.79,98.25 712.08,93.81 713.36,94.30 714.65,92.32 715.93,91.34 717.22,90.84 718.51,91.83 719.79,92.32 721.07,93.81 722.36,95.29 723.64,94.30 724.93,93.81 726.21,92.82 727.50,88.86 728.78,90.84 730.07,89.36 731.35,90.84 732.64,90.84 733.92,92.82 735.21,92.32 736.49,90.84 737.78,91.34 739.07,90.84 740.35,98.25 741.64,104.16 742.92,111.53 744.20,114.97 745.49,119.38 746.77,124.28 748.06,131.12 749.34,135.02 750.63,139.89 751.91,144.27 753.20,150.09 754.48,153.97 755.77,157.36 757.05,160.74 758.34,165.57 759.62,168.95 760.91,171.36 762.20,171.84 763.48,176.65 764.76,176.65 766.05,175.21 767.33,180.50 768.62,187.21 769.90,192.96 771.19,195.35 772.47,201.08 773.76,205.36 775.04,208.70 776.33,216.77 777.61,216.30 778.90,221.99 780.18,223.88 781.47,225.77 782.76,231.91 784.04,233.33 785.32,236.16 786.61,240.87 787.89,242.28 789.18,245.57 790.46,247.92 791.75,250.26 793.03,256.35 794.32,258.22 795.60,260.09 796.89,263.83 798.17,270.82 799.46,278.73 800.74,283.83 802.03,289.85 803.32,295.85 804.60,302.77 805.89,306.91 807.17,314.71 808.45,318.83 809.74,323.86 811.02,328.42 812.31,332.07 813.59,337.98 814.88,342.07 816.16,346.60 817.45,347.96 818.73,352.48 820.02,354.74 821.30,357.00 822.59,361.51 823.87,365.11 825.16,366.91 826.45,371.40 827.73,373.64 829.01,375.88 830.30,375.88 831.58,379.46 832.87,380.81 834.15,382.59 835.44,383.49 836.72,354.29 838.01,352.03 839.29,355.65 840.58,358.80 841.86,362.41 843.15,366.46 844.43,368.26 845.72,371.85 847.01,373.19 848.29,377.23 849.57,378.12 850.86,378.57 852.14,381.70 853.43,383.93 854.71,386.61 856.00,385.27 857.28,388.84 858.57,391.07 859.85,393.30 861.14,393.74 862.42,393.74 863.71,395.08 864.99,395.97 866.28,398.63 867.57,396.85 868.85,400.41 870.14,399.96 871.42,402.62 872.70,402.18 873.99,403.95 875.27,404.84 876.56,406.61 877.84,406.17 879.13,406.61 880.41,405.28 881.70,407.05 882.98,407.94 884.27,409.27 885.55,409.27 886.84,407.94 888.12,411.04 889.41,379.46 890.70,370.05 891.98,371.40 893.26,373.64 894.55,375.88 895.83,378.57 897.12,380.81 898.40,381.25 899.69,385.27 900.97,387.95 902.26,389.73 903.54,390.63 904.83,393.30 906.11,393.74 907.40,393.74 908.68,397.74 909.97,396.85 911.26,398.63 912.54,399.08 913.82,400.85 915.11,402.62 916.39,402.18 917.68,401.29 918.96,403.95 920.25,403.51 921.53,404.84 922.82,404.84 924.10,406.61 925.39,407.94 926.67,409.27 927.96,408.82 929.24,411.92 930.53,409.71 931.82,410.15 933.10,410.59 934.39,411.92 935.67,411.04 936.95,410.15 938.24,413.69 939.52,412.80 940.81,412.80 942.09,411.48 943.38,414.57 944.66,413.24 945.95,415.89 947.23,414.57 948.52,415.01 949.80,414.57 951.09,415.01 952.38,416.33 953.66,415.45 954.95,416.33 956.23,415.01 957.51,415.01 958.80,414.57 960.08,415.01 961.37,415.89 962.65,415.01 963.94,415.89 965.22,414.13 966.51,415.01 967.79,416.33 969.08,416.33 970.36,416.33 971.65,417.22 972.93,415.45 974.22,417.22 975.51,418.98 976.79,418.10 978.07,416.33 979.36,417.22 980.64,415.89 981.93,416.77 983.21,418.10 984.50,417.66 985.78,418.10 987.07,418.54 988.35,419.42 989.64,418.98 990.92,416.77 992.21,416.33 993.49,395.08 994.78,376.33 996.07,375.44 997.35,376.78 998.64,380.36 999.92,383.93 1001.20,384.38 1002.49,386.17 1003.77,387.95 1005.06,390.18 1006.34,391.96 1007.63,394.19 1008.91,395.52 1010.20,396.85 1011.48,396.41 1012.77,399.08 1014.05,400.41 1015.34,399.96 1016.62,403.07 1017.91,402.62 1019.20,403.95 1020.48,403.95 1021.76,403.95 1023.05,406.17 1024.33,405.28 1025.62,405.73 1026.90,407.05 1028.19,407.05 1029.47,407.94 1030.76,410.15 1032.04,411.92 1033.33,411.92 1034.61,411.92 1035.90,411.92 1037.18,413.69 1038.47,413.69 1039.76,412.80 1041.04,414.57 1042.32,413.69 1043.61,414.13 1044.89,414.57 1046.18,414.57 1047.46,414.57 1048.75,415.45 1050.03,416.77 1051.32,415.01 1052.60,415.89 1053.89,417.22 1055.17,418.10 1056.46,417.66 1057.74,416.33 1059.03,415.89 1060.32,417.22 1061.60,416.77 1062.89,417.22 1064.17,415.89 1065.45,418.98 1066.74,418.54 1068.02,418.10 1069.31,417.66 1070.59,417.66 1071.88,418.10 1073.16,417.66 1074.45,418.54 1075.73,418.10 1077.02,417.66 1078.30,418.98 1079.59,419.42 1080.88,418.54 1082.16,417.66 1083.45,419.42 1084.73,417.22 1086.01,418.54 1087.30,419.86 1088.58,418.54 1089.87,418.54 1091.15,419.42 1092.44,418.98 1093.72,418.54 1095.01,385.27 1096.29,374.54 1097.58,378.57 1098.86,379.02 1100.15,381.70 1101.43,382.59 1102.72,383.04 1104.01,386.61 1105.29,388.84 1106.57,389.29 1107.86,392.41 1109.14,392.85 1110.43,395.52 1111.71,395.97 1113.00,397.74 1114.28,398.19 1115.57,398.19 1116.85,399.52 1118.14,400.85 1119.42,403.51 1120.71,404.84 1121.99,405.28 1123.28,404.84 1124.57,408.38 1125.85,407.05 1127.14,407.05 1128.42,409.71 1129.70,410.59 1130.99,409.27 1132.27,409.71 1133.56,411.92 1134.84,410.59 1136.13,412.80 1137.41,411.48 1138.70,411.04 1139.98,411.92 1141.27,414.57 1142.55,415.01 1143.84,415.01 1145.12,415.45 1146.41,415.89 1147.70,416.33 1148.98,415.01 1150.26,415.89 1151.55,418.10 1152.83,415.89 1154.12,415.01 1155.40,415.89 1156.69,416.77 1157.97,417.22 1159.26,418.10 1160.54,416.77 1161.83,418.54 1163.11,416.77 1164.40,417.22 1165.68,419.42 1166.97,417.66 1168.26,417.22 1169.54,417.66 1170.82,417.66 1172.11,418.54 1173.39,418.98 1174.68,419.86 1175.96,417.66 1177.25,417.66 1178.53,418.54 1179.82,418.54 1181.10,421.18 1182.39,420.74 1183.67,419.86 1184.96,417.66 1186.24,418.54 1187.53,418.98 1188.82,418.10 1190.10,418.98 1191.39,417.66 1192.67,421.62 1193.95,421.62 1195.24,407.05 1196.52,378.57 1197.81,374.54 1199.09,377.67 1200.38,379.02 1201.66,381.70 1202.95,383.93 1204.23,386.17 1205.52,388.84 1206.80,389.73 1208.09,390.18 1209.38,391.96 1210.66,395.08 1211.95,395.97 1213.23,396.85 1214.51,398.63 1215.80,400.41 1217.08,400.85 1218.37,402.18 1219.65,402.18 1220.94,403.51 1222.22,405.73 1223.51,407.50 1224.79,407.05 1226.08,407.05 1227.36,407.94 1228.65,407.05 1229.93,408.38 1231.22,407.50 1232.51,408.38 1233.79,409.71 1235.07,411.48 1236.36,411.48 1237.64,412.80 1238.93,411.92 1240.21,412.36 1241.50,413.69 1242.78,413.24 1244.07,413.69 1245.35,413.69 1246.64,413.69 1247.92,414.57 1249.21,414.13 1250.49,415.45 1251.78,415.45 1253.07,414.57 1254.35,415.01 1255.64,415.89 1256.92,416.77 1258.20,416.33 1259.49,416.77 1260.77,416.77 1262.06,415.89 1263.34,417.66 1264.63,418.10 1265.91,417.66 1267.20,417.66 1268.48,418.10 1269.77,417.22 1271.05,418.10 1272.34,418.10 1273.62,417.66 1274.91,418.54 1276.20,417.66 1277.48,418.98 1278.76,418.54 1280.05,417.66 1281.33,417.66 1282.62,420.30 1283.90,418.54 1285.19,419.86 1286.47,419.42 1287.76,418.10 1289.04,416.77 1290.33,419.42 1291.61,417.66 1292.90,418.10 1294.18,420.74 1295.47,419.42 1296.76,418.54 1298.04,418.98 1299.32,381.70 1300.61,374.09 1301.89,374.99 1303.18,379.02 1304.46,380.36 1305.75,383.93 1307.03,385.27 1308.32,386.61 1309.60,388.40 1310.89,389.29 1312.17,393.74 1313.46,392.85 1314.74,395.52 1316.03,396.41 1317.32,397.30 1318.60,399.08 1319.89,399.96 1321.17,400.41 1322.45,402.18 1323.74,403.95 1325.02,403.95 1326.31,405.73 1327.59,406.61 1328.88,404.84 1330.16,407.94 1331.45,407.94 1332.73,407.94 1334.02,409.27 1335.30,410.15 1336.59,411.48 1337.88,410.59 1339.16,411.48 1340.45,411.48 1341.73,412.36 1343.01,413.69 1344.30,412.80 1345.58,412.80 1346.87,413.69 1348.15,415.01 1349.44,413.24 1350.72,413.69 1352.01,415.01 1353.29,415.89 1354.58,416.33 1355.86,415.01 1357.15,415.01 1358.43,416.77 1359.72,417.66 1361.01,415.89 1362.29,416.77 1363.57,415.89 1364.86,416.33 1366.14,416.77 1367.43,416.77 1368.71,416.77 1370.00,418.10"/>
<text x="700.0" y="485" text-anchor="middle" font-size="18" font-family="sans-serif">Time relative to peak max (ms)</text>
<text x="22" y="250.0" text-anchor="middle" font-size="18" font-family="sans-serif" transform="rotate(-90 22,250.0)">Current (uA)</text>
<rect x="1180" y="65" width="180" height="180" fill="white" stroke="#666"/>
<line x1="1192" y1="87" x2="1222" y2="87" stroke="#1f77b4" stroke-width="2"/>
<text x="1230" y="92" font-size="15" font-family="sans-serif">peak 1</text>
<line x1="1192" y1="115" x2="1222" y2="115" stroke="#ff7f0e" stroke-width="2"/>
<text x="1230" y="120" font-size="15" font-family="sans-serif">peak 2</text>
<line x1="1192" y1="143" x2="1222" y2="143" stroke="#2ca02c" stroke-width="2"/>
<text x="1230" y="148" font-size="15" font-family="sans-serif">peak 3</text>
<line x1="1192" y1="171" x2="1222" y2="171" stroke="#d62728" stroke-width="2"/>
<text x="1230" y="176" font-size="15" font-family="sans-serif">peak 4</text>
<line x1="1192" y1="199" x2="1222" y2="199" stroke="#9467bd" stroke-width="2"/>
<text x="1230" y="204" font-size="15" font-family="sans-serif">peak 5</text>
<line x1="1192" y1="227" x2="1222" y2="227" stroke="#8c564b" stroke-width="2"/>
<text x="1230" y="232" font-size="15" font-family="sans-serif">peak 6</text>
</svg>