<svg xmlns="http://www.w3.org/2000/svg" width="1400" height="500" viewBox="0 0 1400 500">
<rect width="100%" height="100%" fill="white"/>
<text x="700.0" y="28" text-anchor="middle" font-size="24" font-family="sans-serif">Peak 4: duration=1.640 ms, mean=39730.2 uA, max=45199.0 uA</text>
<rect x="85" y="55" width="1285" height="385" fill="none" stroke="#333" stroke-width="1"/>
<line x1="85.00" y1="55" x2="85.00" y2="440" stroke="#ddd" stroke-width="1"/>
<line x1="342.00" y1="55" x2="342.00" y2="440" stroke="#ddd" stroke-width="1"/>
<line x1="599.00" y1="55" x2="599.00" y2="440" stroke="#ddd" stroke-width="1"/>
<line x1="856.00" y1="55" x2="856.00" y2="440" stroke="#ddd" stroke-width="1"/>
<line x1="1113.00" y1="55" x2="1113.00" y2="440" stroke="#ddd" stroke-width="1"/>
<line x1="1370.00" y1="55" x2="1370.00" y2="440" stroke="#ddd" stroke-width="1"/>
<line x1="85" y1="55.00" x2="1370" y2="55.00" stroke="#ddd" stroke-width="1"/>
<line x1="85" y1="132.00" x2="1370" y2="132.00" stroke="#ddd" stroke-width="1"/>
<line x1="85" y1="209.00" x2="1370" y2="209.00" stroke="#ddd" stroke-width="1"/>
<line x1="85" y1="286.00" x2="1370" y2="286.00" stroke="#ddd" stroke-width="1"/>
<line x1="85" y1="363.00" x2="1370" y2="363.00" stroke="#ddd" stroke-width="1"/>
<line x1="85" y1="440.00" x2="1370" y2="440.00" stroke="#ddd" stroke-width="1"/>
<text x="85.00" y="462" text-anchor="middle" font-size="14" font-family="sans-serif">16793.460</text>
<text x="75" y="60.00" text-anchor="end" font-size="14" font-family="sans-serif">46797.1</text>
<text x="342.00" y="462" text-anchor="middle" font-size="14" font-family="sans-serif">16794.186</text>
<text x="75" y="137.00" text-anchor="end" font-size="14" font-family="sans-serif">39765.4</text>
<text x="599.00" y="462" text-anchor="middle" font-size="14" font-family="sans-serif">16794.912</text>
<text x="75" y="214.00" text-anchor="end" font-size="14" font-family="sans-serif">32733.8</text>
<text x="856.00" y="462" text-anchor="middle" font-size="14" font-family="sans-serif">16795.638</text>
<text x="75" y="291.00" text-anchor="end" font-size="14" font-family="sans-serif">25702.1</text>
<text x="1113.00" y="462" text-anchor="middle" font-size="14" font-family="sans-serif">16796.364</text>
<text x="75" y="368.00" text-anchor="end" font-size="14" font-family="sans-serif">18670.5</text>
<text x="1370.00" y="462" text-anchor="middle" font-size="14" font-family="sans-serif">16797.090</text>
<text x="75" y="445.00" text-anchor="end" font-size="14" font-family="sans-serif">11638.8</text>
<rect x="438.99" y="55" width="577.01" height="385" fill="#d62728" fill-opacity="0.18"/>
<line x1="85" y1="404.52" x2="1370" y2="404.52" stroke="#2ca02c" stroke-width="1.2" stroke-dasharray="6,4"/>
<line x1="85" y1="338.12" x2="1370" y2="338.12" stroke="#ff7f0e" stroke-width="1.2" stroke-dasharray="3,3"/>
<line x1="711.57" y1="55" x2="711.57" y2="440" stroke="#d62728" stroke-width="1.2" stroke-dasharray="6,4"/>
<polyline fill="none" stroke="#1f77b4" stroke-width="1.0" points="85.00,398.85 88.54,398.85 92.08,399.36 95.62,397.81 99.16,399.88 102.70,400.91 106.24,401.94 109.78,402.46 113.32,402.46 116.86,403.49 120.40,401.94 123.94,399.88 127.48,402.46 131.02,401.94 134.56,404.52 138.10,403.49 141.64,404.00 145.18,402.46 148.72,401.94 152.26,401.94 155.80,404.52 159.34,404.00 162.88,406.06 166.42,407.61 169.96,406.06 173.50,406.06 177.04,405.03 180.58,370.84 184.12,352.54 187.66,355.69 191.20,355.16 194.74,358.31 198.28,361.97 201.82,366.14 205.36,368.75 208.90,369.79 212.44,372.40 215.98,375.00 219.52,376.56 223.06,379.16 226.60,381.76 230.14,381.76 233.68,383.32 237.22,382.80 240.76,385.39 244.30,385.91 247.84,386.95 251.38,389.02 254.92,386.95 258.46,389.54 262.00,391.09 265.54,390.57 269.08,391.61 272.62,393.68 276.16,393.68 279.70,396.26 283.24,394.71 286.78,394.20 290.32,396.78 293.86,396.78 297.40,398.85 300.94,396.78 304.48,398.85 308.02,398.85 311.56,399.88 315.10,399.36 318.64,400.91 322.18,400.39 325.72,400.39 329.26,400.91 332.80,402.97 336.34,400.91 339.88,401.43 343.42,402.46 346.96,402.46 350.50,401.94 354.04,404.00 357.58,403.49 361.12,367.19 364.66,348.35 368.20,351.50 371.74,355.69 375.28,356.74 378.82,360.40 382.36,361.44 385.90,363.53 389.44,368.75 392.98,369.27 396.52,370.84 400.06,372.40 403.60,374.48 407.13,376.04 410.67,377.60 414.21,379.68 417.75,381.24 421.29,383.32 424.83,382.80 428.37,370.84 431.91,358.31 435.45,344.67 438.99,329.39 442.53,318.28 446.07,308.20 449.61,300.21 453.15,292.21 456.69,285.26 460.23,277.75 463.77,272.38 467.31,262.15 470.85,249.72 474.39,227.45 477.93,207.77 481.47,196.24 485.01,185.22 488.55,173.61 492.09,162.52 495.63,152.51 499.17,143.02 502.71,131.83 506.25,124.54 509.79,116.67 513.33,107.09 516.87,99.74 520.41,91.82 523.95,84.44 527.49,90.69 531.03,88.42 534.57,94.09 538.11,92.95 541.65,92.95 545.19,94.65 548.73,91.82 552.27,94.09 555.81,92.39 559.35,89.55 562.89,86.72 566.43,85.01 569.97,80.47 573.51,79.33 577.05,77.62 580.59,76.49 584.13,77.06 587.67,75.35 591.21,74.78 594.75,74.78 598.29,79.90 601.83,81.60 605.37,82.74 608.91,84.44 612.45,85.01 615.99,87.28 619.53,88.42 623.07,85.58 626.61,90.69 630.15,90.12 633.69,88.98 637.23,92.39 640.77,92.39 644.31,90.12 647.85,86.15 651.39,86.15 654.93,84.44 658.47,83.88 662.01,81.60 665.55,79.33 669.09,76.49 672.63,77.06 676.17,77.62 679.71,75.92 683.25,74.21 686.79,73.64 690.33,75.92 693.87,74.21 697.41,73.64 700.95,74.78 704.49,74.78 708.03,74.78 711.57,72.50 715.11,72.50 718.65,75.92 722.19,74.21 725.73,73.64 729.27,74.78 732.81,75.92 736.35,77.06 739.89,74.78 743.43,77.06 746.97,77.06 750.51,79.33 754.05,79.90 757.59,83.31 761.13,85.58 764.67,84.44 768.21,87.85 771.75,87.28 775.29,87.85 778.83,88.98 782.37,91.82 785.91,91.82 789.45,92.95 792.99,89.55 796.53,90.69 800.07,91.82 803.61,92.95 807.15,94.65 810.69,95.22 814.23,96.35 817.77,98.05 821.31,98.61 824.85,92.95 828.39,93.52 831.93,93.52 835.47,91.25 839.01,91.82 842.55,91.82 846.09,92.39 849.63,97.48 853.17,92.95 856.71,94.09 860.25,90.12 863.79,90.69 867.33,86.72 870.87,87.85 874.41,89.55 877.95,90.69 881.49,92.39 885.03,93.52 888.57,95.78 892.11,94.09 895.65,100.31 899.19,111.60 902.73,121.73 906.27,132.95 909.81,139.67 913.35,148.05 916.89,155.85 920.43,157.52 923.97,166.41 927.51,169.73 931.05,176.38 934.59,184.67 938.13,185.22 941.67,192.39 945.21,195.69 948.75,197.89 952.29,207.22 955.83,209.96 959.37,211.06 962.91,217.08 966.45,227.99 969.99,239.42 973.53,250.26 977.07,258.91 980.61,268.07 984.15,278.29 987.69,283.65 991.23,293.28 994.77,299.68 998.31,307.67 1001.85,313.51 1005.39,320.93 1008.93,327.28 1012.47,332.03 1016.01,337.83 1019.55,342.57 1023.09,346.25 1026.63,350.97 1030.17,355.69 1033.71,358.31 1037.25,365.10 1040.79,366.14 1044.33,368.75 1047.87,374.48 1051.40,377.60 1054.94,379.16 1058.48,382.28 1062.02,384.87 1065.56,386.95 1069.10,390.57 1072.64,392.13 1076.18,394.20 1079.72,396.26 1083.26,360.40 1086.80,345.20 1090.34,349.40 1093.88,353.59 1097.42,357.78 1100.96,363.01 1104.50,366.14 1108.04,369.79 1111.58,375.00 1115.12,377.60 1118.66,382.28 1122.20,382.28 1125.74,384.87 1129.28,385.39 1132.82,388.50 1136.36,390.06 1139.90,393.68 1143.44,394.71 1146.98,398.33 1150.52,398.85 1154.06,398.85 1157.60,402.97 1161.14,404.00 1164.68,404.52 1168.22,406.58 1171.76,407.09 1175.30,406.58 1178.84,409.15 1182.38,410.70 1185.92,412.24 1189.46,414.29 1193.00,414.81 1196.54,415.32 1200.08,415.32 1203.62,415.32 1207.16,416.86 1210.70,417.37 1214.24,419.94 1217.78,419.43 1221.32,420.96 1224.86,420.96 1228.40,377.60 1231.94,365.10 1235.48,366.67 1239.02,369.79 1242.56,374.48 1246.10,377.08 1249.64,380.72 1253.18,382.80 1256.72,385.91 1260.26,387.47 1263.80,389.54 1267.34,391.61 1270.88,396.26 1274.42,394.71 1277.96,397.81 1281.50,399.88 1285.04,401.43 1288.58,404.52 1292.12,404.00 1295.66,405.03 1299.20,405.55 1302.74,407.09 1306.28,409.15 1309.82,410.18 1313.36,409.15 1316.90,412.24 1320.44,414.29 1323.98,416.35 1327.52,415.83 1331.06,416.86 1334.60,417.37 1338.14,417.89 1341.68,418.40 1345.22,417.37 1348.76,418.40 1352.30,419.94 1355.84,420.96 1359.38,422.50 1362.92,421.48 1366.46,420.96 1370.00,421.48"/>
<text x="700.0" y="485" text-anchor="middle" font-size="18" font-family="sans-serif">Time (ms)</text>
<text x="22" y="250.0" text-anchor="middle" font-size="18" font-family="sans-serif" transform="rotate(-90 22,250.0)">Current (uA)</text>
</svg>